<?xml version="1.0"?>
<svg version="1.1" xmlns="http://www.w3.org/2000/svg" width="300px" height="225px" style=""><path fill="#0095ff" d="M145.01953125,107.8857421875l0,0.1708984375l0-0.1708984375q0.25634765625,1.11083984375-1.1962890625,2.13623046875t-2.81982421875,1.025390625q-0.08544921875,0-0.25634765625-0.08544921875t-0.25634765625-0.08544921875q-0.341796875-0.1708984375-0.8544921875-0.1708984375q-0.1708984375,0-0.555419921875,0.08544921875t-0.555419921875,0.08544921875l-0.5126953125,0q-0.59814453125,0-1.409912109375,0.25634765625t-1.409912109375,0.25634765625l-2.392578125,0l-1.11083984375,0q-1.1962890625-0.341796875-2.392578125,3.33251953125q0,0.42724609375-0.341796875,1.3671875t-0.341796875,1.28173828125q0,0.59814453125,0.68359375,0.8544921875t0.68359375,1.025390625l0,0.341796875q-0.68359375,0.68359375-0.8544921875,1.025390625l0,1.45263671875q0.1708984375,0.5126953125,0.1708984375,1.5380859375q0,1.45263671875-0.1708984375,1.96533203125q0.1708984375,0.5126953125,0.1708984375,1.8798828125q0,1.45263671875-0.1708984375,2.13623046875q0.341796875-0.1708984375,0.8544921875-0.1708984375q1.025390625,0,1.025390625,0.8544921875q0,0.68359375-0.68359375,1.3671875q-0.68359375,0.59814453125-0.8544921875,1.11083984375t-0.213623046875,1.28173828125t-0.299072265625,1.5380859375q1.025390625-0.25634765625,1.025390625,0.341796875q0,0.42724609375-0.76904296875,1.3671875l-0.76904296875,1.025390625q0.1708984375,0.341796875,0.1708984375,1.96533203125q0,1.3671875-0.1708984375,1.8798828125q0.341796875-0.1708984375,1.025390625-0.1708984375q1.025390625,0,1.025390625,0.93994140625q0,1.1962890625-1.025390625,2.2216796875q-0.8544921875,0.68359375-0.8544921875,1.96533203125l0,1.3671875q0,0.8544921875-0.1708984375,1.3671875q0.08544921875,1.45263671875,0.341796875,4.2724609375t0.341796875,4.18701171875q0.341796875,2.05078125,0.341796875,3.33251953125q0,1.3671875-0.1708984375,1.8798828125q-0.1708984375,0.42724609375-0.25634765625,1.1962890625t-0.25634765625,1.11083984375q0,0.42724609375,0.042724609375,0.469970703125t0.299072265625,0.128173828125t0.5126953125,0.25634765625q0.5126953125,0.5126953125,0.5126953125,1.025390625q0,0.8544921875-0.5126953125,1.62353515625q-0.68359375,1.1962890625-0.8544921875,2.64892578125l0,0.5126953125q0,0.68359375-0.1708984375,1.96533203125t-0.1708984375,1.8798828125l0.59814453125-0.42724609375q0.59814453125-0.5126953125,0.93994140625-0.5126953125q0.08544921875,0,0.5126953125,0.42724609375q0.1708984375,0.1708984375,0.1708984375,0.5126953125q0,0.68359375-0.68359375,1.025390625q-0.1708984375,0.08544921875-0.384521484375,0.25634765625t-0.299072265625,0.25634765625t-0.25634765625,0.213623046875t-0.25634765625,0.25634765625l-0.1708984375,0.25634765625t-0.128173828125,0.299072265625t-0.042724609375,0.42724609375l0,0.341796875q1.1962890625-0.59814453125,1.708984375-0.59814453125q1.025390625,0,1.025390625,0.76904296875q0,0.08544921875-0.08544921875,0.25634765625t-0.08544921875,0.25634765625q-0.1708984375,0.341796875-0.42724609375,0.59814453125t-0.59814453125,0.5126953125t-0.5126953125,0.42724609375q-0.5126953125,0.341796875-0.5126953125,0.5126953125l0,0.76904296875l0,0.341796875q0,0.68359375-0.384521484375,2.30712890625t-0.384521484375,1.708984375l0,0.5126953125q0,1.025390625-0.1708984375,1.1962890625q0,1.025390625-0.8544921875,2.30712890625q0,0.8544921875-0.1708984375,1.1962890625q-0.25634765625,0.76904296875-0.68359375,2.392578125t-0.68359375,2.392578125q0,0.8544921875-1.11083984375,3.076171875q-0.76904296875,1.62353515625-2.5634765625,2.47802734375l-5.2978515625,2.47802734375q0.68359375,0.42724609375,0.68359375,1.3671875q0,1.1962890625-1.025390625,1.1962890625l-0.341796875,0q-0.25634765625,0.25634765625-0.299072265625,1.45263671875t-0.384521484375,1.5380859375q-0.68359375,0.341796875-0.8544921875,0.341796875q-0.42724609375,0-2.47802734375-1.5380859375q-0.1708984375-0.1708984375-0.5126953125-0.1708984375q-0.08544921875,0-0.8544921875,0.5126953125q-0.42724609375,0.25634765625-1.28173828125,0.726318359375t-1.1962890625,0.640869140625q-0.42724609375,0.8544921875-1.3671875,1.79443359375q-1.025390625,1.025390625-2.30712890625,1.025390625q-0.5126953125,0-0.8544921875-0.1708984375t-0.76904296875-0.1708984375t-0.982666015625,0.59814453125t-1.068115234375,0.76904296875q-1.28173828125,0.42724609375-2.64892578125,0.42724609375l-0.5126953125,0q-0.68359375-0.1708984375-1.5380859375-0.1708984375l-0.76904296875,0q-0.59814453125,0-1.666259765625,0.640869140625t-1.409912109375,0.726318359375q-0.68359375,0.341796875-1.28173828125,0.341796875q-0.76904296875,0-1.025390625-0.5126953125q-0.25634765625-0.68359375-1.1962890625-0.68359375q-0.25634765625,0-0.8544921875,0.08544921875t-0.93994140625,0.08544921875q-1.1962890625,0-3.50341796875-0.93994140625l-0.68359375,0q-1.45263671875,0-1.96533203125-0.1708984375q-3.076171875-0.341796875-4.87060546875-0.341796875q-1.1962890625,0-2.734375-0.341796875t-1.62353515625-1.025390625q-0.1708984375-0.08544921875-0.93994140625-0.640869140625t-1.1962890625-0.555419921875l-0.68359375,0.341796875q-0.1708984375,0.1708984375-0.5126953125,0.1708984375q-0.68359375,0-0.68359375-0.8544921875q0-0.59814453125,0.1708984375-0.76904296875q-0.25634765625-0.1708984375-0.93994140625-0.5126953125t-1.28173828125-0.68359375t-0.93994140625-0.68359375l-0.1708984375,0q-0.1708984375,0-0.726318359375,0.25634765625t-0.811767578125,0.25634765625q-0.59814453125-0.1708984375-0.59814453125-0.68359375q0-0.68359375,0.59814453125-1.28173828125q-0.5126953125-0.59814453125-2.008056640625-1.708984375t-2.093505859375-1.96533203125q-0.5126953125-1.025390625-0.68359375-1.025390625t-0.8544921875,0.341796875q-0.341796875,0.1708984375-0.8544921875,0.1708984375t-0.897216796875-0.640869140625t-0.555419921875-0.726318359375q-0.341796875-0.341796875-0.341796875-0.68359375q0-0.42724609375,0.726318359375-1.239013671875t0.726318359375-1.239013671875q-1.025390625,0.5126953125-1.62353515625,0.5126953125q-0.8544921875,0-0.8544921875-0.8544921875q0-0.93994140625,1.3671875-2.30712890625q-0.8544921875-2.99072265625-0.8544921875-3.67431640625l0-0.68359375q-0.5126953125-1.28173828125-0.5126953125-2.81982421875q0-1.3671875,0.469970703125-3.84521484375t0.555419921875-3.50341796875q0-2.5634765625,1.96533203125-4.52880859375q0.25634765625-0.93994140625,1.324462890625-2.2216796875t2.008056640625-1.79443359375q0.08544921875-0.1708984375,0.213623046875-0.469970703125t0.25634765625-0.469970703125t0.384521484375-0.25634765625q0.08544921875-0.08544921875,0.726318359375-0.299072265625t0.811767578125-0.640869140625q0.08544921875-0.42724609375,0.384521484375-0.76904296875t0.640869140625-0.5126953125t0.8544921875-0.341796875t0.59814453125-0.25634765625q0.76904296875-0.1708984375,2.093505859375-0.640869140625t1.751708984375-0.555419921875q2.392578125-0.93994140625,3.16162109375-0.93994140625q0.1708984375,0,0.384521484375,0.08544921875t0.299072265625,0.08544921875q0.42724609375,0.1708984375,1.837158203125,0.469970703125t2.520751953125,0.68359375t1.45263671875,0.811767578125q0.8544921875,0.1708984375,1.79443359375,0.68359375t1.922607421875,1.28173828125t1.495361328125,1.025390625q1.708984375,0.68359375,3.717041015625,3.289794921875t1.751708984375,4.400634765625q0.341796875,1.3671875,0.341796875,3.16162109375l0,0.8544921875l0.341796875,0.5126953125q0.341796875,0,0.68359375,0.341796875t0.341796875,0.68359375q0,0.42724609375-0.341796875,0.76904296875q-0.08544921875,0.25634765625-1.708984375,1.3671875q-0.59814453125,0.5126953125-0.811767578125,2.264404296875t-1.153564453125,2.264404296875q-3.16162109375,1.62353515625-3.16162109375,2.99072265625q-0.08544921875,0.42724609375-0.299072265625,0.811767578125t-0.640869140625,0.68359375t-0.68359375,0.469970703125t-0.811767578125,0.469970703125t-0.726318359375,0.384521484375q0.1708984375,0.1708984375,0.68359375,0.1708984375q0.93994140625,0,1.62353515625-0.341796875q0.5126953125-0.5126953125,1.025390625-0.5126953125q0.42724609375,0,1.1962890625,0.25634765625t1.11083984375,0.25634765625q0.5126953125,0,0.68359375-0.1708984375q0.341796875-0.25634765625,0.982666015625-0.469970703125t0.982666015625-0.469970703125q0.8544921875-0.8544921875,1.8798828125-0.8544921875q0.93994140625-1.5380859375,2.64892578125-1.5380859375q0.59814453125,0,1.3671875,0.5126953125l0-0.5126953125q0-1.62353515625,0.68359375-2.99072265625q0.08544921875-0.5126953125,0.1708984375-1.751708984375t0.1708984375-1.751708984375q-0.08544921875,0-0.341796875,0.08544921875t-0.341796875,0.08544921875q-1.5380859375,0-1.5380859375-0.8544921875l0.341796875-0.68359375q0.1708984375-0.25634765625,1.11083984375-1.025390625t1.025390625-1.28173828125q0-3.33251953125,0.341796875-4.52880859375q-0.341796875,0.341796875-0.93994140625,0.341796875q-0.68359375,0-0.68359375-0.68359375l0-0.1708984375q0-0.25634765625,0.213623046875-0.5126953125t0.59814453125-0.555419921875t0.469970703125-0.384521484375q0.5126953125-0.5126953125,0.5126953125-1.025390625q0-0.1708984375-0.08544921875-0.68359375t-0.08544921875-0.76904296875l0-0.341796875q-0.341796875-1.025390625-0.341796875-4.01611328125q0-2.30712890625,0.1708984375-3.16162109375q-0.59814453125-2.05078125-0.59814453125-5.21240234375q-0.1708984375-0.68359375-0.1708984375-1.79443359375q0-1.8798828125,0.76904296875-3.67431640625q0.1708984375-0.76904296875,0.213623046875-2.349853515625t0.128173828125-2.008056640625q-0.341796875-3.41796875-0.341796875-4.87060546875l0-1.025390625q-0.42724609375-2.13623046875-0.42724609375-4.01611328125q0-1.025390625,0.42724609375-3.16162109375l0-1.11083984375l0-2.392578125q-0.1708984375-0.68359375-0.1708984375-2.64892578125l0-1.025390625q-0.59814453125-1.5380859375-0.59814453125-4.01611328125q0-0.5126953125,0.08544921875-1.1962890625t0.08544921875-0.93994140625q-0.341796875-1.3671875-0.341796875-2.81982421875q0-0.5126953125,0.08544921875-1.1962890625t0.08544921875-0.8544921875l0-1.11083984375q0-0.8544921875,0.1708984375-1.1962890625q0.42724609375-1.708984375,0.42724609375-2.81982421875l0-1.025390625q-0.59814453125-1.5380859375-1.28173828125-4.35791015625q-1.025390625,0-2.05078125-0.5126953125q-0.59814453125,0-1.5380859375,0.299072265625t-1.45263671875,0.384521484375q-0.341796875,0.1708984375-0.68359375,0.1708984375q-0.5126953125,0-1.068115234375-0.5126953125t-0.897216796875-0.68359375q-1.5380859375,0.5126953125-1.8798828125,0.5126953125q-1.025390625,0-1.45263671875-0.68359375q-0.8544921875,0.341796875-3.16162109375,0.341796875l-2.2216796875,0q-3.67431640625-0.5126953125-3.67431640625-4.6142578125q0-1.1962890625,0.1708984375-1.708984375q0-0.1708984375-0.08544921875-0.42724609375t-0.08544921875-0.42724609375q0-0.42724609375,0.1708984375-1.3671875t0.1708984375-1.28173828125q0-0.68359375-0.1708984375-0.8544921875q-2.05078125,0.68359375-2.13623046875,0.68359375q-0.5126953125,0-0.5126953125-0.68359375q0-0.59814453125,1.708984375-2.30712890625l0.76904296875-0.8544921875l0-0.5126953125l0-0.5126953125q0-0.1708984375-0.08544921875-0.640869140625t-0.08544921875-0.640869140625q0-1.79443359375,0.726318359375-2.777099609375t2.349853515625-0.897216796875q1.62353515625,0,1.79443359375,0.1708984375q2.05078125-0.5126953125,2.13623046875-0.5126953125q0.8544921875,0,1.3671875,0.5126953125q0.5126953125-0.5126953125,1.708984375-0.5126953125l0.42724609375,0q0.341796875,0.1708984375,0.68359375,0.1708984375q0.1708984375,0,0.640869140625-0.08544921875t0.726318359375-0.08544921875l0.341796875,0q0.341796875,0,1.153564453125,0.1708984375t1.153564453125,0.1708984375q2.9052734375,0,4.01611328125,0.68359375q1.708984375-0.68359375,2.81982421875-0.68359375q0.1708984375,0,0.469970703125,0.08544921875t0.384521484375,0.08544921875q0.341796875-0.08544921875,1.28173828125-0.25634765625t1.79443359375-0.299072265625t1.62353515625-0.128173828125q1.28173828125,0,2.30712890625,0.5126953125q0.341796875,0,1.025390625-0.341796875t1.025390625-0.341796875q0.25634765625,0,0.93994140625,0.341796875q0.59814453125,0,2.734375,0.8544921875q0.08544921875,0,0.299072265625-0.08544921875t0.299072265625-0.08544921875q0.5126953125,0,1.8798828125,0.68359375q1.025390625-0.68359375,2.81982421875-0.68359375l0.5126953125,0q0.5126953125-0.1708984375,1.3671875-0.1708984375q0.76904296875,0,2.520751953125,0.25634765625t2.435302734375,0.25634765625q0.08544921875,0,0.25634765625-0.08544921875t0.25634765625-0.08544921875q0.42724609375,0,0.93994140625,0.213623046875t0.76904296875,0.299072265625q0.59814453125,0.08544921875,1.751708984375-0.5126953125t1.751708984375-0.5126953125l1.11083984375,0q0.59814453125,0,1.837158203125-0.1708984375t1.837158203125-0.1708984375q0.8544921875,0,1.1962890625,0.1708984375l0.68359375,0q0.5126953125,0,1.580810546875-0.1708984375t1.580810546875-0.1708984375q0.93994140625,0,1.96533203125,0.5126953125q0.1708984375-0.1708984375,0.68359375-0.1708984375q0.42724609375,0,1.409912109375,0.341796875t1.324462890625,0.341796875q0.59814453125,0,1.1962890625,0.726318359375t0.59814453125,1.409912109375q0.1708984375,0.341796875,0.1708984375,1.708984375q0,2.30712890625-0.341796875,3.33251953125q0.1708984375,0.5126953125,0.1708984375,1.79443359375q0,1.79443359375-0.341796875,3.16162109375q0.68359375,2.392578125,0.68359375,4.69970703125z M140.66162109375,95.83740234375q0-0.93994140625-1.45263671875-0.93994140625q-0.68359375,0-1.025390625-0.1708984375q-0.341796875,0.1708984375-2.2216796875,0.1708984375q-2.13623046875,1.45263671875-2.81982421875,1.96533203125q-10.7666015625,7.3486328125-15.97900390625,11.02294921875q-1.1962890625,0.93994140625-3.887939453125,2.81982421875t-4.2724609375,3.033447265625t-3.67431640625,2.947998046875t-3.717041015625,3.41796875q7.26318359375-5.89599609375,23.49853515625-15.0390625q2.05078125-1.1962890625,12.04833984375-6.494140625q0.42724609375-0.25634765625,1.153564453125-0.555419921875t1.153564453125-0.5126953125t0.76904296875-0.640869140625t0.42724609375-1.025390625z M125.79345703125,112.24365234375q0-0.341796875,0.341796875-0.68359375q-11.02294921875,6.3232421875-15.380859375,9.0576171875q-1.3671875,0.76904296875-4.18701171875,2.47802734375t-4.2724609375,2.47802734375q-0.1708984375,0.08544921875-1.068115234375,0.59814453125t-1.324462890625,0.93994140625t-0.5126953125,0.8544921875q0.1708984375,0.5126953125,0.1708984375,2.13623046875q0.341796875-0.25634765625,1.96533203125-1.5380859375t2.13623046875-1.666259765625t1.96533203125-1.495361328125t2.13623046875-1.62353515625t2.008056640625-1.45263671875t2.2216796875-1.495361328125t2.093505859375-1.28173828125t2.30712890625-1.324462890625t2.2216796875-1.11083984375q2.81982421875-1.1962890625,3.67431640625-1.1962890625q0.76904296875,0,1.409912109375-0.384521484375t0.897216796875-0.811767578125t0.640869140625-1.324462890625t0.555419921875-1.153564453125z M125.10986328125,123.9501953125l-0.76904296875,0.59814453125l0.76904296875-0.59814453125q-2.2216796875,1.5380859375-5.2978515625,4.01611328125q0.25634765625-0.1708984375,1.79443359375-1.025390625t2.520751953125-1.62353515625t0.982666015625-1.3671875z M123.14453125,127.62451171875l-1.1962890625,0.76904296875l1.1962890625-0.76904296875q-3.2470703125,2.05078125-9.100341796875,6.3232421875t-8.416748046875,5.9814453125q-2.99072265625,1.96533203125-5.04150390625,2.81982421875q-1.025390625,0.42724609375-1.025390625,1.8798828125q0,1.025390625,0.1708984375,1.3671875q13.41552734375-10.33935546875,24.267578125-18.88427734375q-0.1708984375,0.08544921875-0.42724609375,0.25634765625t-0.42724609375,0.25634765625z M116.650390625,142.49267578125q0.5126953125-0.341796875,1.922607421875-1.11083984375t2.093505859375-1.28173828125q0.76904296875-0.25634765625,2.178955078125-0.982666015625t1.495361328125-1.153564453125q-1.3671875,0.76904296875-3.887939453125,2.264404296875t-3.802490234375,2.264404296875z M124.93896484375,155.65185546875q-3.16162109375,2.734375-9.5703125,8.074951171875t-9.5703125,7.989501953125q10.51025390625-6.8359375,17.51708984375-10.25390625q0.341796875,0,1.239013671875-0.341796875t0.897216796875-0.59814453125q-0.5126953125-1.79443359375-0.5126953125-4.87060546875z M124.51171875,149.15771484375q0-0.08544921875-2.862548828125,1.837158203125t-3.546142578125,2.520751953125q-1.11083984375,0.76904296875-3.33251953125,2.47802734375t-3.33251953125,2.47802734375q-0.59814453125,0.42724609375-2.691650390625,2.008056640625t-3.033447265625,2.349853515625t-2.47802734375,2.13623046875t-2.64892578125,2.5634765625q2.05078125-1.1962890625,7.177734375-4.144287109375t7.861328125-4.571533203125q1.1962890625-0.59814453125,3.887939453125-2.178955078125t4.144287109375-2.349853515625q1.025390625-0.59814453125,1.025390625-1.62353515625q0-0.341796875-0.1708984375-1.153564453125t-0.1708984375-1.239013671875q0-0.76904296875,0.1708984375-1.11083984375z M124.51171875,145.8251953125l-0.1708984375,0.1708984375q0.1708984375,0,0.1708984375-0.1708984375q-3.41796875,2.05078125-9.65576171875,6.494140625t-9.228515625,6.3232421875q-2.64892578125,1.8798828125-4.01611328125,2.05078125q-1.3671875,0.25634765625-1.3671875-0.68359375q0-1.1962890625,1.3671875-2.5634765625q-1.45263671875,0.76904296875-1.8798828125,1.5380859375q0,1.45263671875-0.341796875,2.81982421875q0,2.99072265625,0.341796875,4.18701171875q1.025390625-1.025390625,2.30712890625-2.178955078125t2.178955078125-1.8798828125t2.606201171875-2.008056640625t2.30712890625-1.79443359375q3.5888671875-2.81982421875,8.80126953125-6.494140625q0.25634765625-0.1708984375,2.2216796875-1.409912109375t3.16162109375-2.349853515625t1.1962890625-2.05078125z M99.13330078125,121.8994140625l0,0.1708984375l0-0.1708984375l0,0.341796875l0-0.341796875z M99.13330078125,125.57373046875l0.76904296875-0.5126953125q-0.59814453125,0.341796875-0.76904296875,0.5126953125q1.45263671875-0.8544921875,6.15234375-3.67431640625q-0.68359375,0.25634765625-2.47802734375,0.640869140625t-2.64892578125,0.982666015625t-1.025390625,2.05078125z M100.4150390625,118.73779296875l0.341796875-0.341796875l-0.341796875,0.5126953125l0-0.1708984375q2.13623046875-2.13623046875,5.169677734375-4.52880859375t4.6142578125-3.546142578125t6.024169921875-4.18701171875t5.04150390625-3.460693359375q-2.392578125,1.45263671875-7.135009765625,4.144287109375t-7.049560546875,4.058837890625q-1.11083984375,0.59814453125-3.41796875,1.922607421875t-3.41796875,1.922607421875q-0.8544921875,0.59814453125-0.8544921875,4.35791015625l0,0.68359375q0.1708984375-0.25634765625,0.5126953125-0.68359375t0.5126953125-0.68359375z M99.560546875,112.92724609375q3.33251953125-3.41796875,12.56103515625-11.19384765625q-8.80126953125,5.46875-12.21923828125,7.177734375q-0.1708984375,0.08544921875-0.726318359375,0.213623046875t-0.726318359375,0.299072265625t-0.1708984375,0.59814453125l0,0.341796875q0.59814453125,1.62353515625,0.8544921875,2.9052734375q0-0.08544921875,0.1708984375-0.1708984375t0.25634765625-0.1708984375z M117.1630859375,96.52099609375l-0.1708984375,0q0.1708984375-0.1708984375,0.341796875-0.1708984375l-0.1708984375,0.1708984375q-0.1708984375,0.08544921875-0.42724609375,0.25634765625t-0.42724609375,0.25634765625q0.42724609375-0.25634765625,1.239013671875-0.76904296875t1.239013671875-0.76904296875q-0.59814453125,0-1.62353515625,1.025390625z M78.369140625,104.21142578125q0.93994140625-1.3671875,2.81982421875-4.2724609375t2.9052734375-4.2724609375q-0.341796875,0.25634765625-1.8798828125,1.025390625t-2.64892578125,1.5380859375t-1.1962890625,1.28173828125q0,0.1708984375,0.08544921875,0.5126953125t0.08544921875,0.5126953125q0,0.42724609375-0.1708984375,1.3671875t-0.1708984375,1.45263671875q0,0.08544921875,0.08544921875,0.384521484375t0.08544921875,0.469970703125z M78.1982421875,94.8974609375l0,0.59814453125q0.5126953125-0.25634765625,0.8544921875-0.59814453125q-0.08544921875,0-0.341796875-0.08544921875t-0.341796875-0.08544921875q-0.1708984375,0-0.1708984375,0.1708984375z M100.244140625,155.31005859375l1.025390625-0.68359375l-1.025390625,0.68359375q3.41796875-2.64892578125,9.0576171875-6.6650390625q-3.9306640625,2.392578125-5.72509765625,3.33251953125q-0.341796875,0.25634765625-1.1962890625,0.640869140625t-1.153564453125,0.640869140625t-0.640869140625,0.76904296875t-0.341796875,1.28173828125z M112.46337890625,151.9775390625q-7.09228515625,4.443359375-9.228515625,6.3232421875q1.62353515625-0.93994140625,9.228515625-6.3232421875z M114.94140625,148.47412109375q0.76904296875-0.42724609375,2.435302734375-1.409912109375t2.435302734375-1.409912109375q-3.9306640625,2.2216796875-4.87060546875,2.81982421875z M125.10986328125,133.60595703125l-2.64892578125,1.96533203125q0.68359375-0.59814453125,2.64892578125-1.96533203125l-0.1708984375-0.1708984375q-0.42724609375,0-2.47802734375,1.3671875q-1.708984375,0.8544921875-3.50341796875,2.13623046875q-2.99072265625,1.62353515625-7.3486328125,4.35791015625q-1.62353515625,0.93994140625-4.742431640625,2.862548828125t-3.631591796875,2.264404296875q-0.1708984375,0.08544921875-0.726318359375,0.384521484375t-0.76904296875,0.42724609375t-0.555419921875,0.384521484375t-0.5126953125,0.469970703125t-0.299072265625,0.555419921875t-0.128173828125,0.68359375l0,0.5126953125q17.34619140625-10.7666015625,24.86572265625-16.2353515625z M99.90234375,140.10009765625l2.392578125-1.79443359375q0-0.08544921875-0.59814453125,0.341796875t-1.1962890625,0.897216796875t-0.59814453125,0.555419921875q3.076171875-2.2216796875,9.185791015625-6.622314453125t9.185791015625-6.536865234375q-10.25390625,6.3232421875-14.697265625,8.63037109375q-0.42724609375,0.25634765625-2.99072265625,1.5380859375q-0.68359375,0.25634765625-0.68359375,1.025390625l0,1.28173828125l0,0.68359375z M99.7314453125,134.46044921875l0.1708984375,0l-0.1708984375,0q1.79443359375-1.3671875,9.869384765625-6.57958984375t11.834716796875-8.80126953125q-5.89599609375,3.84521484375-15.63720703125,9.48486328125q-3.41796875,2.05078125-5.38330078125,3.076171875q-0.8544921875,0.42724609375-0.8544921875,1.62353515625q0,0.1708984375,0.08544921875,0.555419921875t0.08544921875,0.640869140625z M111.26708984375,123.4375l1.3671875-0.8544921875q-0.08544921875,0-0.213623046875,0.08544921875t-0.469970703125,0.341796875t-0.68359375,0.42724609375q1.11083984375-0.68359375,3.375244140625-2.093505859375t3.460693359375-2.093505859375q-1.45263671875,0.68359375-3.84521484375,2.264404296875t-2.99072265625,1.922607421875z M124.51171875,110.53466796875l0.59814453125-0.341796875q-0.25634765625,0-0.59814453125,0.341796875q1.96533203125-1.1962890625,2.47802734375-1.79443359375q-0.42724609375,0.25634765625-1.239013671875,0.897216796875t-1.239013671875,0.897216796875z M128.4423828125,107.71484375l0.1708984375,0l-0.1708984375,0q0.68359375,0,0.68359375-0.5126953125q-0.341796875,0.341796875-0.68359375,0.5126953125z M122.802734375,109.5947265625l0.5126953125-0.341796875l-4.69970703125,3.16162109375q1.025390625-0.68359375,4.18701171875-2.81982421875q1.11083984375-0.76904296875,4.1015625-2.81982421875t4.6142578125-3.2470703125q-18.45703125,9.99755859375-28.11279296875,17.34619140625q2.47802734375-0.8544921875,5.426025390625-2.392578125t4.35791015625-2.392578125t5.340576171875-3.546142578125t4.2724609375-2.947998046875z M124.93896484375,96.17919921875q-1.28173828125,0-2.30712890625-0.341796875l-0.341796875,0q-0.76904296875,0-2.30712890625,1.5380859375q-1.025390625,0.76904296875-5.89599609375,5.04150390625q-5.38330078125,4.2724609375-10.16845703125,8.63037109375q3.076171875-1.79443359375,8.758544921875-5.084228515625t10.33935546875-5.9814453125t8.843994140625-5.084228515625q-0.8544921875-0.1708984375-2.734375,0.726318359375t-2.81982421875,0.897216796875q-0.341796875,0-1.3671875-0.341796875z M89.05029296875,94.8974609375l0.1708984375,0l-0.1708984375,0q-0.1708984375,0-0.469970703125-0.08544921875t-0.469970703125-0.08544921875q-0.76904296875,0-1.409912109375,0.469970703125t-1.025390625,0.982666015625t-0.982666015625,1.5380859375t-0.93994140625,1.45263671875q-0.68359375,1.1962890625-2.13623046875,3.289794921875t-1.8798828125,2.777099609375q7.94677734375-5.6396484375,14.35546875-9.5703125q-0.341796875-0.08544921875-2.392578125-0.213623046875t-2.64892578125-0.555419921875z M99.90234375,174.1943359375q0,0.25634765625,1.068115234375-0.59814453125t1.495361328125-1.28173828125q4.69970703125-4.01611328125,6.15234375-5.126953125q2.5634765625-2.2216796875,8.7158203125-7.3486328125q-8.45947265625,4.9560546875-10.7666015625,6.15234375q-1.025390625,0.59814453125-2.947998046875,1.751708984375t-2.862548828125,1.751708984375q-1.025390625,0.42724609375-1.025390625,1.8798828125q0,0.341796875,0.08544921875,1.153564453125t0.08544921875,1.153564453125l0,0.5126953125z M120.15380859375,165.13671875q-3.16162109375,1.62353515625-3.16162109375,1.8798828125q1.45263671875-0.68359375,3.16162109375-1.8798828125q-7.09228515625,3.84521484375-13.24462890625,7.861328125q-0.341796875,0.25634765625-2.2216796875,1.1962890625t-3.16162109375,1.8798828125t-1.45263671875,1.79443359375q0.1708984375,0.341796875,0.1708984375,0.8544921875q0,0.93994140625-0.341796875,2.30712890625q9.99755859375-8.0322265625,20.25146484375-15.8935546875z M123.486328125,170.52001953125l0.1708984375,0l-0.1708984375,0q0.08544921875,0.341796875,0,0.68359375t-0.384521484375,0.68359375t-0.68359375,0.68359375t-0.93994140625,0.726318359375t-1.025390625,0.640869140625t-1.068115234375,0.555419921875t-0.93994140625,0.5126953125t-0.76904296875,0.42724609375t-0.5126953125,0.213623046875q-2.392578125,1.45263671875-6.8359375,4.058837890625t-6.06689453125,3.631591796875q-0.25634765625,0.1708984375-1.580810546875,0.8544921875t-2.093505859375,1.28173828125t-1.025390625,1.1962890625q0.1708984375,0.341796875,0.1708984375,1.5380859375q0,1.025390625-0.1708984375,1.5380859375q2.99072265625-2.2216796875,8.758544921875-6.109619140625t6.793212890625-4.571533203125q0.76904296875-0.5126953125,3.546142578125-2.520751953125t4.315185546875-3.204345703125q1.96533203125-1.62353515625,1.96533203125-2.47802734375q0-0.5126953125-0.25634765625-1.025390625q-0.5126953125,0.341796875-1.1962890625,0.68359375z M124.51171875,174.5361328125l0,0.1708984375l0-0.1708984375l0-0.1708984375q-0.1708984375,0-0.555419921875,0.341796875t-0.8544921875,0.76904296875t-0.640869140625,0.5126953125q-0.5126953125,0.341796875-1.580810546875,1.11083984375t-1.580810546875,1.11083984375q-0.1708984375,0.08544921875-2.947998046875,2.05078125t-4.229736328125,2.9052734375q-1.1962890625,0.8544921875-4.144287109375,2.777099609375t-4.571533203125,3.118896484375q-0.08544921875,0.08544921875-1.324462890625,0.811767578125t-2.093505859375,1.409912109375t-0.8544921875,1.11083984375q3.9306640625-2.5634765625,17.00439453125-10.68115234375q1.025390625-0.59814453125,3.204345703125-2.178955078125t3.460693359375-2.349853515625q1.025390625-0.5126953125,1.3671875-0.5126953125q0.341796875-0.1708984375,0.341796875-1.025390625l0-1.11083984375z M98.44970703125,194.873046875l0.1708984375,0l-0.1708984375,0l-0.341796875,0.341796875q0.1708984375-0.08544921875,1.45263671875-0.5126953125q-0.1708984375,0-0.555419921875,0.08544921875t-0.555419921875,0.08544921875z M95.71533203125,199.23095703125l-0.25634765625,0.1708984375q0.42724609375,0,0.42724609375-0.1708984375l-0.1708984375,0q-0.1708984375,0.341796875-0.68359375,0.726318359375t-0.59814453125,0.469970703125q2.13623046875-1.28173828125,2.47802734375-1.5380859375q-0.68359375,0.341796875-1.1962890625,0.341796875z M98.10791015625,197.86376953125q-0.08544921875,0.08544921875-0.1708984375,0.25634765625t-0.1708984375,0.25634765625q1.3671875-0.8544921875,4.18701171875-2.64892578125t4.18701171875-2.64892578125q-2.9052734375,1.708984375-5.38330078125,2.81982421875q-0.25634765625,0.1708984375-0.982666015625,0.42724609375t-0.982666015625,0.42724609375q-0.42724609375,0.08544921875-0.5126953125,0.5126953125t-0.1708984375,0.59814453125z M86.9140625,203.076171875l0.5126953125,0l-0.5126953125,0q-0.5126953125,0-1.11083984375,0.299072265625t-0.982666015625,0.59814453125t-1.025390625,0.93994140625t-0.897216796875,0.811767578125q-4.01611328125,3.16162109375-6.3232421875,4.87060546875q0.93994140625,0.08544921875,2.05078125-0.384521484375t2.691650390625-1.580810546875t1.751708984375-1.1962890625q8.7158203125-5.126953125,9.65576171875-5.72509765625q-0.08544921875,0-0.341796875,0.08544921875t-0.341796875,0.08544921875q-0.341796875,0-0.59814453125-0.08544921875t-0.59814453125-0.213623046875t-0.59814453125-0.213623046875q-1.708984375,1.708984375-3.33251953125,1.708984375z M80.419921875,202.9052734375q-0.76904296875-0.1708984375-2.5634765625-1.5380859375q-0.1708984375,1.025390625-0.726318359375,1.96533203125t-1.8798828125,2.47802734375t-1.409912109375,1.62353515625q3.84521484375-2.5634765625,7.09228515625-4.35791015625q-0.1708984375-0.1708984375-0.5126953125-0.1708984375z M61.19384765625,198.88916015625q2.13623046875-1.45263671875,6.57958984375-4.229736328125t6.57958984375-4.144287109375q-2.392578125,1.45263671875-7.09228515625,4.2724609375t-7.09228515625,4.2724609375q0,0.1708984375,0.1708984375,0.341796875q0.1708984375-0.1708984375,0.8544921875-0.5126953125z M70.3369140625,197.52197265625l-0.93994140625,0.5126953125q0.59814453125-0.341796875,0.93994140625-0.5126953125l-4.6142578125,2.5634765625z M57.861328125,193.07861328125q0-0.1708984375,0.76904296875-0.93994140625t1.79443359375-1.708984375l0.93994140625-0.8544921875q0.59814453125-0.5126953125,2.5634765625-2.349853515625t3.076171875-2.691650390625q5.46875-4.87060546875,10.85205078125-9.31396484375q-4.35791015625,2.30712890625-15.63720703125,10.51025390625q-0.1708984375,0.1708984375-1.11083984375,0.68359375t-1.580810546875,0.93994140625t-1.28173828125,1.025390625t-0.726318359375,1.025390625q0,0.5126953125,0.1708984375,1.580810546875t0.1708984375,1.580810546875l0,0.5126953125z M68.54248046875,173.33984375l-0.1708984375,0.341796875q0.1708984375,0,0.1708984375-0.341796875q-1.708984375,2.13623046875-2.05078125,2.47802734375q1.28173828125-1.025390625,2.734375-2.47802734375l-0.68359375,0z M59.31396484375,181.884765625q0,0.08544921875,0.76904296875-0.555419921875t1.11083984375-0.982666015625q0.42724609375-0.341796875,1.324462890625-1.153564453125t1.324462890625-1.153564453125q-0.25634765625,0.25634765625-1.751708984375,0.469970703125t-1.580810546875,0.555419921875q-0.5126953125,2.13623046875-1.1962890625,2.81982421875z M60.16845703125,194.873046875l8.88671875-5.126953125q-3.67431640625,1.96533203125-8.88671875,5.126953125z M59.65576171875,197.52197265625l-0.1708984375,0l0.1708984375,0l-0.341796875,0.1708984375q0.1708984375-0.1708984375,0.341796875-0.1708984375z M75.89111328125,200.08544921875l-0.5126953125,0.341796875l0.5126953125-0.341796875q-0.1708984375,0.08544921875-4.01611328125,2.99072265625q0.42724609375-0.25634765625,1.96533203125-1.28173828125t2.392578125-1.5380859375q-0.08544921875,0-0.1708984375-0.08544921875t-0.1708984375-0.08544921875z M81.87255859375,175.98876953125q-0.93994140625-0.59814453125-1.11083984375-0.59814453125q-0.341796875,0-0.59814453125,0.1708984375t-0.726318359375,0.640869140625t-0.726318359375,0.640869140625q-1.3671875,1.025390625-3.802490234375,3.033447265625t-2.862548828125,2.349853515625q-7.6904296875,6.6650390625-11.19384765625,10.16845703125q5.126953125-3.076171875,14.5263671875-7.861328125q1.1962890625-0.59814453125,3.41796875-1.751708984375t3.41796875-1.751708984375l1.1962890625-0.59814453125t1.45263671875-0.42724609375q0-0.8544921875-1.3671875-2.264404296875t-1.62353515625-1.751708984375z M74.86572265625,172.8271484375l0.1708984375,0l-0.1708984375,0l-0.341796875,0q-1.28173828125,0-1.96533203125-0.341796875l-1.3671875,1.3671875q-0.93994140625,0.93994140625-2.81982421875,2.5634765625t-2.13623046875,1.79443359375q-1.1962890625,1.025390625-3.289794921875,2.862548828125t-3.289794921875,2.777099609375q-0.08544921875,0.08544921875-0.555419921875,0.5126953125t-0.640869140625,0.640869140625t-0.384521484375,0.640869140625t-0.213623046875,0.8544921875l0,0.1708984375q1.79443359375-1.1962890625,8.544921875-6.15234375t10.85205078125-7.0068359375q-1.708984375,0-2.392578125-0.68359375z M62.21923828125,202.5634765625q0.1708984375,0.08544921875,0.59814453125,0.469970703125t0.8544921875,0.726318359375t0.5126953125,0.341796875q0.341796875-0.25634765625,0.93994140625-0.76904296875t0.93994140625-0.76904296875q0.76904296875-0.59814453125,2.392578125-1.751708984375t2.392578125-1.751708984375q-0.341796875,0.1708984375-1.751708984375,1.11083984375t-2.349853515625,1.409912109375t-1.8798828125,0.811767578125q-0.1708984375,0-0.5126953125,0.08544921875t-0.5126953125,0.08544921875q-2.13623046875,0-2.13623046875-0.8544921875q0-0.59814453125,0.5126953125-1.11083984375q-0.68359375,0-0.68359375,0.59814453125q0,0.68359375,0.68359375,1.3671875z M65.5517578125,205.38330078125l0.341796875,0q0.25634765625,0,0.555419921875-0.213623046875t0.726318359375-0.640869140625t0.68359375-0.59814453125q-1.8798828125,1.11083984375-2.30712890625,1.45263671875z M74.01123046875,203.759765625l-0.93994140625,0.5126953125q0-0.08544921875,0.384521484375-0.299072265625t0.555419921875-0.213623046875q-0.8544921875,0.5126953125-2.734375,1.666259765625t-2.734375,1.666259765625q0.5126953125,0.25634765625,0.93994140625,0.5126953125l0.640869140625,0.384521484375t0.384521484375,0.128173828125t1.3671875-1.1962890625q2.9052734375-3.33251953125,3.33251953125-4.01611328125q-0.68359375,0.341796875-1.1962890625,0.8544921875z M81.87255859375,204.443359375q-1.45263671875,0.68359375-1.45263671875,0.93994140625q0.76904296875-0.42724609375,1.45263671875-0.93994140625q-0.42724609375,0.1708984375-8.80126953125,5.2978515625q0.341796875,0.341796875,1.11083984375,0.341796875q0.42724609375,0,0.726318359375-0.213623046875t0.76904296875-0.68359375t0.726318359375-0.640869140625q2.734375-1.8798828125,5.46875-4.1015625z M84.26513671875,211.4501953125q0.1708984375,0,0.1708984375-0.1708984375q-0.1708984375,0-0.1708984375,0.1708984375q0.68359375-0.341796875,0.93994140625-0.341796875l0.341796875,0q0.341796875,0,0.68359375-0.341796875q0.25634765625-0.341796875,0.555419921875-0.640869140625t0.68359375-0.640869140625t0.640869140625-0.59814453125q0.42724609375-0.341796875,1.324462890625-1.153564453125t1.324462890625-1.153564453125q1.62353515625-1.28173828125,4.6142578125-3.41796875t4.01611328125-2.9052734375q2.13623046875-1.45263671875,18.37158203125-12.56103515625q-3.759765625,2.392578125-11.492919921875,7.3486328125t-13.75732421875,8.7158203125t-11.578369140625,7.0068359375q0.5126953125,0.25634765625,1.666259765625,0.341796875t1.666259765625,0.341796875z M124.51171875,185.21728515625l-0.68359375,0.5126953125l0.68359375-0.5126953125q-20.5078125,13.8427734375-25.1220703125,17.17529296875q3.5888671875-1.708984375,10.25390625-4.827880859375t8.45947265625-3.973388671875q2.30712890625-1.1962890625,4.01611328125-2.2216796875q0.5126953125-0.42724609375,0.811767578125-0.811767578125t0.555419921875-1.153564453125l0.341796875-1.025390625q0.1708984375-0.5126953125,0.341796875-1.62353515625t0.341796875-1.5380859375z M106.73828125,205.21240234375q0.341796875-0.1708984375,0.5126953125-0.42724609375t0.384521484375-0.640869140625t0.299072265625-0.555419921875q-1.1962890625,0.68359375-3.33251953125,2.093505859375t-3.33251953125,2.093505859375q2.64892578125-1.11083984375,5.46875-2.5634765625z M88.53759765625,210.9375q1.3671875-0.68359375,1.3671875-0.8544921875q-1.025390625,0.341796875-1.3671875,0.8544921875q5.6396484375-2.9052734375,16.9189453125-9.5703125q-8.88671875,4.18701171875-12.04833984375,6.06689453125q-3.759765625,2.30712890625-4.87060546875,3.50341796875z M93.5791015625,211.1083984375l-0.1708984375,0l0.1708984375,0q0.93994140625,0,3.33251953125-2.392578125q-1.79443359375,1.1962890625-4.87060546875,2.734375q0.08544921875,0,0.1708984375,0.08544921875t0.1708984375,0.08544921875q0.1708984375,0,0.555419921875-0.25634765625t0.640869140625-0.25634765625z M121.9482421875,195.21484375q0-0.08544921875,0.08544921875-0.25634765625t0.08544921875-0.25634765625q-3.84521484375,2.5634765625-10.33935546875,6.494140625q0.76904296875,0.08544921875,1.8798828125-0.341796875t1.8798828125-0.8544921875t2.008056640625-1.28173828125t1.580810546875-1.025390625q0.5126953125-0.341796875,1.1962890625-0.640869140625t1.11083984375-0.640869140625q0.08544921875-0.08544921875,0.25634765625-0.59814453125t0.25634765625-0.59814453125z M124.6826171875,181.201171875q-5.55419921875,3.50341796875-6.23779296875,4.18701171875q0.25634765625-0.1708984375,1.922607421875-1.068115234375t2.99072265625-1.79443359375t1.324462890625-1.324462890625z M114.0869140625,186.07177734375l1.025390625-0.68359375q0.1708984375,0-2.13623046875,1.45263671875q0.25634765625-0.25634765625,1.11083984375-0.76904296875q0.59814453125-0.42724609375,2.81982421875-1.922607421875t3.5888671875-2.264404296875q0.25634765625-0.1708984375,1.025390625-0.59814453125t1.324462890625-0.76904296875t1.025390625-0.8544921875t0.469970703125-0.93994140625q-3.67431640625,2.2216796875-10.125732421875,6.75048828125t-9.100341796875,6.23779296875q2.99072265625-1.708984375,8.97216796875-5.6396484375z M105.62744140625,179.833984375l3.50341796875-2.47802734375l-3.67431640625,2.64892578125l0.1708984375-0.1708984375q3.9306640625-2.64892578125,15.0390625-9.65576171875q0.1708984375-0.08544921875,0.8544921875-0.384521484375t1.068115234375-0.5126953125t0.8544921875-0.555419921875t0.726318359375-0.726318359375t0.341796875-0.811767578125l0-0.5126953125q0-0.5126953125,0.213623046875-1.580810546875t0.213623046875-1.580810546875q-2.2216796875,1.79443359375-6.8359375,5.2978515625t-6.8359375,5.21240234375q-1.11083984375,0.8544921875-3.289794921875,2.64892578125t-3.204345703125,2.64892578125q-0.341796875,0.25634765625-1.62353515625,1.153564453125t-2.178955078125,1.666259765625t-1.068115234375,1.3671875q0.93994140625-0.59814453125,2.81982421875-1.837158203125t2.9052734375-1.837158203125z M124.3408203125,140.78369140625l0-0.341796875q-4.9560546875,3.41796875-5.89599609375,4.01611328125q3.33251953125-1.8798828125,4.87060546875-2.30712890625q0.1708984375-0.08544921875,0.42724609375-0.1708984375q0.5126953125-0.1708984375,0.5126953125-0.59814453125z M125.10986328125,128.564453125q0.08544921875,0.1708984375-0.59814453125,0.726318359375t-1.79443359375,1.3671875t-2.13623046875,1.5380859375t-1.922607421875,1.3671875t-1.068115234375,0.726318359375q-1.5380859375,1.1962890625-4.144287109375,3.2470703125t-3.460693359375,2.734375q2.47802734375-1.5380859375,11.279296875-6.8359375q1.28173828125-0.59814453125,3.41796875-1.96533203125q0.59814453125-0.341796875,0.59814453125-1.025390625q0-0.1708984375-0.08544921875-0.726318359375t-0.08544921875-0.811767578125l0-0.341796875z M124.6826171875,116.943359375q0,0.25634765625-0.8544921875,1.96533203125q-0.59814453125,0.8544921875-3.16162109375,2.99072265625q-4.69970703125,3.67431640625-15.8935546875,11.02294921875q6.15234375-3.2470703125,13.8427734375-8.0322265625q0.1708984375-0.08544921875,1.96533203125-1.068115234375t3.118896484375-1.922607421875t1.409912109375-1.45263671875q-0.42724609375-1.28173828125-0.42724609375-2.5634765625l0-0.93994140625z M139.97802734375,106.09130859375l0.1708984375,0l-0.1708984375,0q0.8544921875-0.42724609375,0.8544921875-1.025390625q0-0.25634765625-0.1708984375-0.982666015625t-0.1708984375-1.068115234375l0-0.341796875l0-0.59814453125q0-0.341796875,0.08544921875-1.025390625t0.08544921875-1.025390625q0-0.68359375-0.1708984375-1.025390625q-1.96533203125,1.5380859375-5.810546875,4.315185546875t-4.35791015625,3.204345703125l0.341796875,0q0.68359375,0,0.8544921875,0.1708984375q1.1962890625-0.59814453125,1.62353515625-0.59814453125q0.42724609375,0.08544921875,0.68359375,0.59814453125t0.5126953125,0.5126953125l0.68359375-0.341796875q1.025390625-0.76904296875,2.13623046875-0.76904296875q0.25634765625,0,0.8544921875,0.128173828125t0.8544921875,0.128173828125q0.59814453125,0,1.11083984375-0.25634765625z M291.03002929688,136.9384765625l0,0.1708984375l0-0.1708984375q0.1708984375,0.1708984375,0.1708984375,0.68359375q0,1.3671875-2.30712890625,2.30712890625q0.68359375,0.25634765625,0.68359375,0.5126953125q0,0.42724609375-0.59814453125,1.11083984375l-0.59814453125,0.59814453125q0.1708984375,1.11083984375-1.79443359375,2.30712890625q-0.68359375,0.341796875-1.708984375,0.341796875q-0.93994140625,0-1.708984375-0.5126953125q-0.341796875,0.1708984375-3.16162109375,0.1708984375q-0.68359375-0.08544921875-1.922607421875,0.128173828125t-1.751708984375,0.213623046875q-1.1962890625,0-1.96533203125-0.5126953125q-0.08544921875,0-0.5126953125-0.08544921875t-0.5126953125-0.08544921875q-0.1708984375-0.1708984375-0.5126953125-0.1708984375q-0.1708984375,0-0.384521484375,0.08544921875t-0.384521484375,0.08544921875l-0.341796875,0q-2.392578125,0-3.076171875-0.68359375q-0.93994140625-0.5126953125-0.93994140625-1.96533203125q-0.341796875-1.025390625-0.341796875-1.708984375l-1.025390625-0.5126953125q-0.1708984375-0.1708984375-0.1708984375-0.76904296875q0-0.341796875,0.42724609375-1.11083984375t0.42724609375-1.28173828125q-0.341796875-1.025390625-0.341796875-2.13623046875l0-0.341796875q-0.341796875-0.59814453125-0.5126953125-1.79443359375t-0.5126953125-1.708984375l0-0.1708984375q0-0.42724609375,0.68359375-2.47802734375q-0.08544921875-0.59814453125-0.1708984375-1.580810546875t-0.25634765625-1.708984375t-0.59814453125-1.409912109375q-0.1708984375-0.25634765625-0.59814453125-1.153564453125t-0.640869140625-1.28173828125t-0.68359375-1.11083984375t-0.811767578125-1.153564453125t-0.897216796875-0.897216796875t-1.153564453125-0.726318359375q-0.5126953125-0.08544921875-1.580810546875-0.76904296875t-1.153564453125-0.76904296875q-0.1708984375,0-0.59814453125-0.08544921875t-0.68359375-0.08544921875q-0.1708984375,0-0.469970703125-0.08544921875t-0.384521484375-0.08544921875q-0.1708984375,0-0.5126953125,0.128173828125t-0.68359375,0.213623046875q-0.5126953125,0.08544921875-1.11083984375-0.341796875t-0.8544921875-0.5126953125l-0.8544921875,0l-2.47802734375,0q-0.42724609375,0-1.409912109375-0.08544921875t-1.409912109375-0.08544921875q-2.13623046875,0-4.69970703125,0.5126953125q-0.08544921875,0-0.25634765625,0.08544921875t-0.25634765625,0.08544921875q-1.28173828125,0-2.30712890625-0.68359375q-0.1708984375,0-0.5126953125-0.08544921875t-0.5126953125-0.08544921875l-0.1708984375,0q-0.68359375,0.68359375-1.025390625,0.68359375q-0.1708984375,0.1708984375-0.5126953125,0.1708984375q-0.42724609375,0-0.59814453125-0.68359375l-0.1708984375-0.59814453125q-0.1708984375,0-0.469970703125,0.08544921875t-0.384521484375,0.08544921875l-0.5126953125,0q-0.42724609375,0-1.409912109375-0.1708984375t-1.409912109375-0.1708984375l-0.68359375,0l-1.3671875,0l-0.93994140625,0q-0.42724609375,0-1.28173828125,0.299072265625t-1.28173828125,0.299072265625l-0.5126953125,0q-1.025390625,0.341796875-2.47802734375,0.341796875q-0.341796875,0-0.8544921875-0.299072265625t-0.76904296875-0.299072265625q-2.05078125,1.5380859375-2.2216796875,2.64892578125q0.08544921875,0.76904296875,0.1708984375,2.47802734375t0.1708984375,2.47802734375q0,0.08544921875,0.640869140625,0.213623046875t0.726318359375,0.640869140625q0,0.1708984375-0.5126953125,1.1962890625q-0.68359375,0.68359375-0.68359375,1.45263671875q0,0.1708984375,0.08544921875,0.640869140625t0.08544921875,0.726318359375l0,0.5126953125q0,0.25634765625,0.08544921875,0.68359375t0.08544921875,0.68359375q0,2.05078125-0.68359375,4.78515625q1.025390625-0.5126953125,1.3671875-0.5126953125q0.8544921875,0,1.11083984375,0.68359375q0.1708984375,0.1708984375,0.1708984375,0.5126953125t-0.42724609375,0.8544921875t-1.11083984375,1.025390625t-0.76904296875,0.59814453125q-0.8544921875,0.8544921875-0.8544921875,2.5634765625l0,0.5126953125q0.1708984375-0.1708984375,0.5126953125-0.1708984375q0.5126953125,0,0.5126953125,0.76904296875q0,0.68359375-0.5126953125,1.1962890625q-0.5126953125,0.341796875-0.5126953125,1.025390625l0,1.11083984375q0.5126953125,0,1.45263671875,0.08544921875t1.3671875,0.08544921875q2.81982421875-1.11083984375,3.2470703125-1.11083984375q1.5380859375,0,1.79443359375,1.11083984375l2.30712890625,0q0.25634765625,0.08544921875,1.153564453125-0.042724609375t1.239013671875-0.128173828125q1.3671875,0,1.79443359375,0.68359375q0.341796875-1.28173828125,1.3671875-1.28173828125q0.1708984375,0,0.8544921875,0.341796875q0.8544921875,0.42724609375,0.93994140625,0.42724609375q0.59814453125,0,1.5380859375-0.93994140625q-0.5126953125-0.25634765625-0.5126953125-1.5380859375q0-1.1962890625,0.59814453125-3.84521484375t0.59814453125-3.16162109375q-0.341796875,0.1708984375-0.68359375,0.1708984375q-0.68359375,0-0.68359375-0.68359375q0-0.59814453125,0.68359375-1.025390625q0.8544921875-0.59814453125,0.8544921875-1.79443359375l0-1.025390625q-0.1708984375,0.1708984375-0.5126953125,0.1708984375q-0.5126953125,0-0.68359375-0.341796875q-0.1708984375-0.1708984375-0.1708984375-0.5126953125q0-0.5126953125,1.1962890625-1.11083984375q0.42724609375-2.64892578125,0.8544921875-3.16162109375q0.5126953125-0.68359375,2.47802734375-0.68359375l1.025390625,0q0.42724609375,0,1.068115234375,0.299072265625t0.897216796875,0.384521484375q0.341796875,0.1708984375,1.1962890625,0.1708984375q1.45263671875,0,5.2978515625-0.8544921875l0.68359375,0l1.8798828125,0l0.341796875,0q0.25634765625,0,0.897216796875-0.08544921875t0.897216796875-0.08544921875l0.5126953125,0q0.08544921875,0.08544921875,0.726318359375,0.341796875t0.982666015625,0.469970703125t0.811767578125,0.5126953125t0.640869140625,0.640869140625t0,0.68359375q-0.5126953125,2.05078125-1.025390625,2.81982421875q0,0.68359375-0.341796875,1.708984375l0,1.025390625l0,2.47802734375q0.1708984375,0.68359375,0.1708984375,2.30712890625q0.341796875,0.68359375,0.341796875,1.3671875t-0.341796875,2.2216796875l-0.341796875,1.62353515625q1.5380859375-1.025390625,1.708984375-1.025390625q0.1708984375-0.1708984375,0.5126953125-0.1708984375q0.68359375,0,0.68359375,0.8544921875q0,0.76904296875-0.68359375,1.025390625q0.68359375,0.42724609375,0.68359375,1.11083984375q0,0.8544921875-1.3671875,1.8798828125q-0.8544921875,0.8544921875-0.8544921875,1.45263671875l0.341796875,1.3671875q0.1708984375,0.341796875,0.1708984375,2.30712890625q0,1.1962890625-0.1708984375,1.3671875l0,0.5126953125q0,0.341796875,0.08544921875,1.068115234375t0.08544921875,1.068115234375q0,0.68359375-0.1708984375,1.025390625l0,0.5126953125q0,0.25634765625-0.5126953125,3.33251953125q0,2.81982421875-0.1708984375,3.67431640625q0,1.79443359375-0.1708984375,2.64892578125q0.341796875,0.341796875,0.341796875,0.5126953125t-0.1708984375,0.469970703125t-0.1708984375,0.555419921875l0,0.68359375l0,1.96533203125l0,1.025390625q1.025390625-0.5126953125,1.1962890625-0.5126953125q0.5126953125,0,0.68359375,0.341796875l0.1708984375,0.341796875q0,0.341796875-0.341796875,0.68359375q-1.5380859375,1.025390625-1.5380859375,1.28173828125l0,0.1708984375q1.025390625-0.5126953125,1.708984375-0.5126953125t0.68359375,0.5126953125l-0.341796875,0.68359375q-0.25634765625,0.42724609375-0.982666015625,0.93994140625t-0.726318359375,1.025390625q0,0.08544921875,0.08544921875,0.25634765625t0.08544921875,0.25634765625q0.341796875-0.341796875,0.68359375-0.341796875q0.8544921875,0,0.8544921875,0.8544921875q0,0.59814453125-0.726318359375,1.28173828125t-0.811767578125,1.11083984375l0,1.79443359375q0,3.33251953125-2.13623046875,3.33251953125q-1.1962890625,0.08544921875-3.41796875-0.299072265625t-3.2470703125-0.384521484375q-1.3671875,0-2.05078125,0.341796875q-0.1708984375,0-0.42724609375,0.08544921875t-0.42724609375,0.08544921875q-0.42724609375,0-1.11083984375-0.341796875q-0.1708984375,0.1708984375-0.8544921875,0.1708984375q-0.68359375,0.341796875-1.1962890625,0.341796875q-0.76904296875,0-1.45263671875-0.341796875q-2.05078125,1.025390625-3.33251953125,1.025390625q-0.68359375,0-0.68359375-0.68359375l0-0.341796875q0.08544921875-0.25634765625,0.299072265625-0.42724609375t0.213623046875-0.25634765625l0-0.1708984375q-0.5126953125-0.5126953125-0.5126953125-2.30712890625q0-0.25634765625-0.08544921875-0.8544921875t-0.08544921875-0.93994140625t0.08544921875-0.982666015625t0.08544921875-0.897216796875q-0.25634765625-1.8798828125-0.5126953125-5.596923828125t-0.5126953125-5.596923828125q-0.08544921875-0.25634765625-0.25634765625-0.59814453125q-0.25634765625-0.68359375-0.8544921875-0.8544921875t-1.025390625-0.341796875q-1.28173828125-0.59814453125-3.50341796875-1.1962890625q-1.3671875-0.1708984375-4.35791015625-0.1708984375l-1.708984375,0q-0.76904296875,0.42724609375-2.093505859375,0.59814453125t-1.580810546875,0.25634765625t-1.068115234375-0.128173828125t-1.068115234375-0.213623046875q-0.59814453125,0-0.8544921875,0.68359375l0,0.76904296875q0,2.13623046875-0.5126953125,3.41796875q0.1708984375,0.5126953125,0.1708984375,0.8544921875q0,0.25634765625,0.42724609375,0.341796875q0.341796875,0,0.59814453125,0.08544921875q1.025390625,0.25634765625,1.025390625,1.025390625q0,0.59814453125-1.025390625,2.2216796875t-1.025390625,2.13623046875t0.5126953125,0.5126953125q1.025390625,0.25634765625,1.025390625,1.11083984375q0,0.59814453125-0.8544921875,1.1962890625q-0.76904296875,0.5126953125-0.8544921875,0.8544921875l-0.1708984375,0.5126953125q0.08544921875,1.025390625,0.555419921875,3.84521484375t0.469970703125,4.2724609375q0,1.8798828125-0.341796875,2.734375l0,0.59814453125q0,1.1962890625,0.68359375,3.2470703125q0.08544921875,0.1708984375,0.128173828125,0.726318359375t0.128173828125,0.93994140625t0.42724609375,0.640869140625q0.1708984375-0.1708984375,0.68359375-0.1708984375q1.45263671875,0,2.13623046875,0.68359375q0.08544921875,0,0.341796875-0.08544921875t0.341796875-0.08544921875q0.59814453125,0,0.8544921875,0.5126953125q0.68359375-0.341796875,0.93994140625-0.341796875q0.5126953125,0,0.8544921875,0.341796875l0.8544921875,0q2.64892578125,0,2.99072265625,0.341796875q0.5126953125-0.1708984375,2.64892578125-0.1708984375q0.42724609375,0,1.45263671875-0.25634765625t1.5380859375-0.25634765625t0.8544921875,0.1708984375q1.025390625-0.5126953125,1.5380859375-0.5126953125q2.81982421875,0,2.81982421875,5.46875q0,1.11083984375-0.5126953125,3.67431640625q0.341796875-0.1708984375,0.68359375-0.1708984375t0.341796875,0.341796875t-0.59814453125,1.5380859375t-0.59814453125,1.45263671875q0.8544921875-0.59814453125,1.025390625-0.59814453125t0.1708984375,0.341796875q0,0.5126953125-0.384521484375,1.5380859375t-0.640869140625,1.28173828125q-0.1708984375,0.1708984375-0.1708984375,1.11083984375l0,1.1962890625q0,1.28173828125-1.28173828125,1.5380859375q-1.45263671875,1.45263671875-2.05078125,1.45263671875l-0.5126953125,0q-1.62353515625-0.5126953125-1.96533203125-0.76904296875q-0.341796875,0.68359375-0.8544921875,0.93994140625l-0.341796875,0q-0.93994140625,0-1.96533203125-0.341796875l-0.341796875,0l-1.025390625,0l-0.341796875,0q-0.341796875-0.08544921875-1.1962890625-0.5126953125t-1.28173828125-0.42724609375q-0.5126953125,0.341796875-1.3671875,0.341796875q-1.28173828125,0-1.79443359375-0.1708984375q-0.341796875,0.1708984375-2.05078125,0.1708984375q-1.11083984375,0-1.28173828125-0.1708984375q-0.341796875-0.1708984375-0.68359375-0.1708984375q-0.42724609375,0-1.239013671875,0.299072265625t-1.324462890625,0.299072265625q-0.76904296875,0-2.392578125-0.128173828125t-2.392578125-0.128173828125q-1.1962890625,0-2.2216796875,0.25634765625q-0.341796875,0.341796875-1.11083984375,0.341796875l-0.5126953125,0q-0.341796875-0.1708984375-0.68359375-0.1708984375q-0.1708984375,0-0.42724609375,0.25634765625t-0.59814453125,0.42724609375t-0.93994140625,0.1708984375q-0.68359375,0-1.1962890625-0.5126953125q-0.25634765625,0-0.469970703125,0.128173828125t-0.555419921875,0.213623046875q-0.341796875,0.1708984375-1.45263671875,0.1708984375q-1.8798828125,0-4.01611328125-0.8544921875q-1.025390625,0.341796875-1.708984375,0.341796875q-0.42724609375,0-1.409912109375-0.08544921875t-1.409912109375-0.08544921875q-1.025390625,0-1.5380859375,0.1708984375q-0.68359375,0.341796875-2.13623046875,0.341796875q-0.5126953125,0-1.62353515625-0.08544921875t-1.708984375-0.08544921875q-1.025390625,0-1.5380859375,0.1708984375l-0.341796875,0q-0.42724609375,0-1.1962890625-0.1708984375t-1.11083984375-0.1708984375q-0.59814453125-0.08544921875-2.05078125,0.555419921875t-2.13623046875,0.640869140625t-1.5380859375-0.5126953125t-1.45263671875-0.5126953125q-0.08544921875,0-0.299072265625,0.08544921875t-0.384521484375,0.08544921875q-0.08544921875,0-0.25634765625,0.08544921875t-0.25634765625,0.08544921875q-0.25634765625,0-0.93994140625-0.1708984375t-1.025390625-0.1708984375l-0.341796875,0l-1.5380859375,0q-1.11083984375,0-1.45263671875-0.341796875q-0.59814453125,0-1.1962890625-0.59814453125t-0.8544921875-0.68359375q-0.5126953125-0.25634765625-0.5126953125-2.99072265625q0-2.64892578125,0.341796875-3.67431640625q-0.1708984375-0.8544921875-0.1708984375-3.076171875l0-2.99072265625q-0.1708984375-0.341796875-0.1708984375-1.45263671875q0-4.01611328125,2.392578125-4.01611328125q0.42724609375,0,1.239013671875-0.1708984375t1.239013671875-0.1708984375q0.5126953125,0,0.68359375,0.1708984375q0.8544921875,0,1.3671875,0.341796875q0.341796875-0.341796875,1.28173828125-0.341796875q0.68359375-0.341796875,1.1962890625-0.341796875t0.8544921875,0.341796875q0.68359375-0.341796875,0.93994140625-0.341796875q0.5126953125,0,0.8544921875,0.341796875q1.62353515625-1.1962890625,3.67431640625-1.1962890625q0.5126953125,0,0.93994140625,0.1708984375l0.42724609375,0.1708984375q0.1708984375,0,0.68359375-1.025390625q0-1.5380859375,1.45263671875-3.50341796875q-0.1708984375,0.1708984375-1.025390625,0.1708984375q-1.28173828125,0-1.28173828125-0.8544921875l0-0.1708984375q0.08544921875-0.68359375,1.025390625-1.45263671875t0.93994140625-1.3671875q-0.341796875-1.025390625-0.341796875-1.96533203125q0-1.708984375,0.1708984375-2.2216796875q-0.76904296875-0.42724609375-0.76904296875-0.93994140625q0-0.25634765625,0.42724609375-0.68359375q0.5126953125-1.025390625,0.5126953125-1.1962890625q0-1.11083984375,0.1708984375-1.45263671875q0.1708984375-0.1708984375,0.1708984375-0.8544921875l0-1.5380859375l0-0.68359375l0-0.93994140625q0-0.68359375,0.08544921875-2.13623046875t0.08544921875-1.8798828125q-0.341796875-2.392578125-0.341796875-4.52880859375l0-1.5380859375q-0.08544921875-0.08544921875-0.68359375-0.384521484375t-0.59814453125-0.726318359375q0-0.08544921875,0.08544921875-0.1708984375t0.1708984375-0.213623046875t0.1708984375-0.299072265625q0.341796875-0.5126953125,0.341796875-1.025390625l0-1.11083984375l0-0.68359375q0-0.08544921875,0.341796875-2.13623046875t0.68359375-3.076171875l0-0.341796875q0-0.341796875-0.341796875-0.93994140625t-0.341796875-0.8544921875q0-0.42724609375,0.68359375-0.8544921875q0.341796875-0.341796875,0.341796875-1.1962890625t-0.42724609375-2.606201171875t-0.42724609375-2.178955078125q-0.5126953125-1.28173828125-0.5126953125-2.734375q0-2.13623046875,0.5126953125-3.67431640625q0.1708984375-0.5126953125,0.341796875-1.666259765625t0.341796875-1.666259765625q-0.341796875-1.025390625-0.341796875-2.81982421875q-0.5126953125-3.076171875-0.5126953125-4.69970703125q0-1.45263671875,0.1708984375-1.79443359375q-0.5126953125-1.025390625-0.5126953125-3.67431640625q0-0.341796875,0.08544921875-0.982666015625t0.08544921875-0.897216796875q0-0.68359375-0.25634765625-2.178955078125t-0.25634765625-2.264404296875q-0.1708984375-0.42724609375-0.25634765625-1.153564453125t-0.341796875-1.11083984375t-0.8544921875-0.469970703125q-1.708984375-0.341796875-1.8798828125-0.341796875q-0.08544921875,0-1.79443359375,0.341796875q-0.1708984375,0.1708984375-1.1962890625,0.1708984375q-1.62353515625,0-1.62353515625-1.11083984375l0-0.1708984375q-1.025390625,0.341796875-1.1962890625,0.341796875q-0.5126953125,0-1.409912109375-0.25634765625t-1.409912109375-0.25634765625l-0.68359375,0l-0.5126953125,0q-3.33251953125,0-3.84521484375-0.5126953125q-0.5126953125-1.025390625-0.5126953125-2.99072265625q0-0.68359375,0.08544921875-1.751708984375t0.08544921875-1.324462890625q0-2.734375-0.1708984375-3.9306640625q-0.08544921875,0-0.5126953125,0.341796875t-0.8544921875,0.555419921875t-0.76904296875,0.213623046875q-0.68359375,0-0.68359375-0.8544921875q0-0.341796875,0.384521484375-0.897216796875t0.982666015625-1.153564453125l0.76904296875-0.76904296875q0.5126953125-0.76904296875,0.5126953125-0.8544921875l0-0.59814453125l0-0.68359375q-0.341796875-1.025390625-0.341796875-1.3671875q0-1.025390625,0.68359375-1.495361328125t2.093505859375-0.68359375t1.751708984375-0.299072265625l0.5126953125,0q0.341796875,0,1.153564453125,0.1708984375t1.153564453125,0.1708984375q0.5126953125,0,2.05078125-0.5126953125q1.025390625-0.341796875,3.67431640625-0.341796875l0.68359375,0q0.5126953125,0.25634765625,1.62353515625,0.5126953125t1.708984375,0.5126953125q0.25634765625,0,0.8544921875-0.08544921875t0.93994140625-0.08544921875q1.28173828125,0,2.05078125,0.5126953125q0.68359375-0.341796875,1.62353515625-0.341796875l0.68359375,0q0.42724609375,0,1.153564453125-0.25634765625t1.153564453125-0.25634765625q0.341796875,0,1.11083984375,0.25634765625t1.11083984375,0.25634765625q0.08544921875,0,0.25634765625-0.08544921875t0.25634765625-0.08544921875q0.68359375-0.341796875,1.96533203125-0.341796875q1.5380859375,0,2.30712890625,0.5126953125q0.68359375-0.341796875,1.8798828125-0.341796875q1.62353515625,0,2.47802734375,0.1708984375q0.5126953125,0,1.708984375-0.42724609375t1.79443359375-0.42724609375l0.5126953125,0l0.5126953125,0q0.341796875,0,0.982666015625-0.1708984375t0.897216796875-0.1708984375q0.76904296875,0,1.28173828125,0.5126953125l1.5380859375,0l0.5126953125,0q0.68359375-0.341796875,1.62353515625-0.341796875l0.341796875,0q2.81982421875,0,3.33251953125,0.5126953125q0.25634765625,0,0.68359375-0.08544921875t0.68359375-0.08544921875q0.42724609375,0,1.409912109375,0.08544921875t1.409912109375,0.08544921875q1.025390625,0,1.5380859375-0.1708984375q0.1708984375,0,0.469970703125-0.08544921875t0.469970703125-0.08544921875q0.5126953125,0,1.45263671875,0.25634765625t1.45263671875,0.25634765625q0.68359375,0,1.45263671875-0.5126953125q0.1708984375-0.1708984375,0.68359375-0.1708984375q0.59814453125,0,0.8544921875,0.68359375l0.5126953125,0l1.45263671875,0l1.3671875,0q1.11083984375,0,1.45263671875,0.1708984375l0.5126953125,0q0.25634765625,0,0.897216796875-0.08544921875t0.982666015625-0.08544921875q0.59814453125,0,0.93994140625,0.1708984375t0.8544921875,0.1708984375q0.1708984375,0,0.8544921875-0.1708984375t1.1962890625-0.1708984375q0.341796875,0.08544921875,1.153564453125,0.299072265625t1.324462890625,0.213623046875l1.3671875-0.341796875q0.08544921875,0,0.299072265625-0.08544921875t0.299072265625-0.08544921875q0.25634765625,0,0.555419921875,0.08544921875t0.469970703125,0.08544921875q0.341796875,0,0.5126953125-0.1708984375q1.025390625-0.341796875,1.5380859375-0.341796875l0.59814453125,0q0.93994140625,0.341796875,1.922607421875,0.42724609375t2.520751953125,0.1708984375t2.13623046875,0.08544921875q0.341796875-0.1708984375,1.11083984375-0.1708984375q1.1962890625,0,2.2216796875,0.341796875q0.341796875,0,1.068115234375-0.1708984375t1.068115234375-0.1708984375t1.025390625,0.341796875l-0.68359375-0.1708984375q0-0.1708984375,0.76904296875-0.299072265625t1.45263671875-0.213623046875l0.76904296875,0l-0.5126953125,0q0.341796875,0,1.025390625,0.1708984375t1.025390625,0.1708984375q1.45263671875-0.1708984375,2.13623046875-0.1708984375l0.5126953125,0l0,0.1708984375q1.3671875-1.025390625,2.47802734375-1.025390625q0.08544921875,0,0.299072265625,0.08544921875t0.384521484375,0.08544921875q1.3671875,0.341796875,1.5380859375,0.341796875q0.59814453125,0,1.96533203125-0.341796875l0.5126953125,0q0.25634765625,0,0.640869140625,0.08544921875t0.555419921875,0.08544921875q0.5126953125,0,0.8544921875-0.1708984375q0.1708984375,0,0.469970703125-0.08544921875t0.469970703125-0.08544921875l2.5634765625,0.5126953125q0.341796875-0.1708984375,1.45263671875-0.1708984375q3.2470703125,0,4.18701171875,1.708984375q0.1708984375,0.341796875,0.1708984375,1.28173828125q0,1.11083984375-0.68359375,4.52880859375q-0.1708984375,0.341796875-0.1708984375,1.1962890625q0,0.5126953125,0.1708984375,1.5380859375t0.1708984375,1.62353515625q0.5126953125,1.025390625,0.5126953125,3.67431640625q0,1.79443359375-0.5126953125,2.81982421875q-0.1708984375,0.68359375-0.1708984375,2.47802734375q0,1.708984375-0.1708984375,2.5634765625q0.1708984375,0.341796875,0.1708984375,1.62353515625q0,1.1962890625-0.1708984375,1.708984375q0.341796875,1.025390625,0.341796875,3.33251953125l0.5126953125,0q1.708984375,0,1.708984375,1.11083984375q0,0.341796875-0.5126953125,0.8544921875l-0.25634765625,0.25634765625q-0.341796875,0.1708984375-0.555419921875,0.384521484375t-0.213623046875,0.384521484375q0.1708984375,0.1708984375,0.1708984375,0.5126953125q0,0.59814453125-0.68359375,1.28173828125q0,1.025390625,0.1708984375,2.9052734375t0.1708984375,2.81982421875q0.68359375-0.341796875,1.708984375-0.341796875q0.76904296875,0,0.76904296875,0.341796875q0,0.5126953125-0.341796875,0.8544921875t-0.93994140625,0.68359375t-0.8544921875,0.68359375t-0.341796875,0.93994140625q1.5380859375-0.5126953125,1.708984375-0.5126953125q0.59814453125,0,0.76904296875,0.341796875z M284.53588867188,131.4697265625l-0.5126953125,0.42724609375q0.5126953125,0,0.5126953125-0.42724609375q-1.025390625,0.76904296875-4.78515625,3.33251953125t-5.55419921875,4.18701171875q2.5634765625-1.025390625,6.451416015625-3.50341796875t3.887939453125-4.01611328125z M270.86401367188,136.083984375l0.5126953125-0.1708984375l-0.5126953125,0.1708984375q0.59814453125-0.341796875,1.751708984375-1.068115234375t1.751708984375-1.068115234375l-1.11083984375,0.555419921875t-1.666259765625,0.897216796875t-0.726318359375,0.68359375z M270.18041992188,131.640625q0-0.25634765625,0.68359375-0.897216796875t1.62353515625-1.45263671875t1.025390625-0.897216796875q1.025390625-0.8544921875,2.862548828125-2.64892578125t2.862548828125-2.64892578125q-1.11083984375,0.59814453125-3.2470703125,1.922607421875t-3.33251953125,1.922607421875q-1.62353515625,0.93994140625-2.05078125,1.495361328125t-0.42724609375,2.008056640625l0,1.1962890625z M280.86157226562,103.18603515625l0.1708984375-0.1708984375l-0.8544921875,0.68359375q0.1708984375-0.1708984375,0.68359375-0.5126953125q0.341796875-0.25634765625,1.153564453125-0.726318359375t1.11083984375-0.726318359375t0.555419921875-0.811767578125t0.1708984375-1.409912109375q-1.025390625,1.025390625-3.375244140625,2.64892578125t-3.460693359375,2.5634765625q-1.28173828125,1.025390625-8.63037109375,7.51953125l5.46875-4.1015625t7.0068359375-4.9560546875z M258.47387695312,110.70556640625q15.380859375-8.80126953125,22.216796875-12.8173828125q-1.45263671875,0.341796875-3.204345703125,1.11083984375t-2.862548828125,1.409912109375t-3.16162109375,1.96533203125t-2.64892578125,1.666259765625q-1.62353515625,0.93994140625-7.177734375,4.18701171875q-3.16162109375,2.13623046875-3.16162109375,2.30712890625l0,0.1708984375z M276.67456054688,97.71728515625l-0.341796875,0.1708984375l0.341796875-0.1708984375q-0.341796875,0.1708984375-1.153564453125,0.640869140625t-1.153564453125,0.640869140625z M278.21264648438,101.220703125q-0.25634765625,0.1708984375-1.239013671875,0.8544921875t-1.580810546875,0.93994140625q2.5634765625-1.5380859375,2.81982421875-1.79443359375z M284.19409179688,105.40771484375q-1.3671875,1.28173828125-3.887939453125,3.802490234375t-3.802490234375,3.717041015625q5.04150390625-3.33251953125,7.177734375-4.18701171875q0.8544921875-0.42724609375,0.8544921875-1.1962890625t-0.341796875-2.13623046875z M283.68139648438,114.55078125l-0.76904296875,0.68359375q0.76904296875-0.5126953125,0.76904296875-0.68359375q-5.38330078125,5.38330078125-10.85205078125,10.33935546875q3.2470703125-1.79443359375,7.51953125-4.443359375q0.5126953125-0.25634765625,1.666259765625-0.8544921875t1.666259765625-0.8544921875q0.1708984375-0.1708984375,0.1708984375-1.62353515625q0-2.2216796875-0.1708984375-2.5634765625z M270.52221679688,133.94775390625l0.68359375-0.5126953125l-0.68359375,0.5126953125q6.3232421875-4.443359375,10.68115234375-7.0068359375q0.25634765625-0.1708984375,1.068115234375-0.555419921875t1.3671875-0.76904296875t0.555419921875-0.726318359375q-0.341796875-0.8544921875-0.341796875-3.50341796875q-3.759765625,3.076171875-8.63037109375,7.6904296875q-4.69970703125,3.759765625-4.69970703125,4.87060546875z M266.84790039062,98.22998046875l-0.5126953125,0.341796875l0.5126953125-0.341796875q-0.76904296875,0.5126953125-1.8798828125,0.5126953125l-0.42724609375,0q-0.1708984375,0.25634765625-0.5126953125,0.811767578125t-0.5126953125,0.811767578125q-0.68359375,1.1962890625-2.178955078125,3.546142578125t-2.178955078125,3.631591796875q7.51953125-5.89599609375,12.73193359375-8.97216796875l-2.5634765625,0q-1.62353515625,0-2.47802734375-0.341796875z M252.83422851562,98.22998046875l0,0.1708984375q0.1708984375,0,0.1708984375-0.1708984375l-0.1708984375,0q-0.42724609375,0.1708984375-0.93994140625,0.299072265625t-0.76904296875,0.1708984375t-0.59814453125,0.299072265625t-0.68359375,0.68359375q-0.5126953125,0.59814453125-1.666259765625,1.837158203125t-1.666259765625,1.837158203125q-4.1015625,4.443359375-5.38330078125,6.06689453125q7.51953125-4.01611328125,18.37158203125-10.25390625q-0.5126953125,0-1.495361328125-0.213623046875t-1.495361328125-0.213623046875l-0.5126953125,0q-0.08544921875,0-0.341796875,0.128173828125t-0.341796875,0.128173828125q-1.3671875,0-2.47802734375-0.76904296875z M241.81127929688,98.57177734375q-5.2978515625,2.47802734375-13.671875,9.82666015625q0.59814453125,0,3.33251953125-2.05078125q1.1962890625-0.76904296875,4.18701171875-2.99072265625q6.57958984375-4.1015625,7.60498046875-4.6142578125q-0.5126953125-0.1708984375-1.45263671875-0.1708984375z M215.06567382812,119.42138671875l0-0.341796875q-0.341796875,0.341796875-0.341796875,0.8544921875q0,1.11083984375-0.341796875,1.79443359375q-1.11083984375,1.62353515625-3.33251953125,3.16162109375q-2.30712890625,1.8798828125-4.998779296875,3.759765625t-6.365966796875,4.2724609375t-5.2978515625,3.50341796875q11.1083984375-6.57958984375,15.0390625-9.14306640625q0.76904296875-0.5126953125,2.47802734375-1.495361328125t2.47802734375-1.495361328125q0.8544921875-0.68359375,0.8544921875-0.8544921875l0-0.8544921875q-0.1708984375-0.68359375-0.1708984375-2.30712890625l0-0.8544921875z M215.40747070312,127.11181640625q0-0.08544921875-1.068115234375,0.68359375t-2.30712890625,1.62353515625t-1.495361328125,1.025390625q0.25634765625-0.1708984375,1.580810546875-0.897216796875t2.264404296875-1.3671875t1.025390625-1.068115234375z M171.48657226562,106.5185546875q0-0.08544921875,0.59814453125-0.8544921875t1.28173828125-1.708984375t0.76904296875-1.11083984375q0.42724609375-0.59814453125,1.28173828125-1.837158203125t1.28173828125-1.837158203125q-0.59814453125,0.25634765625-3.84521484375,1.8798828125q-1.28173828125,0.59814453125-1.45263671875,1.1962890625q-0.08544921875,0.1708984375-0.08544921875,0.42724609375q0.1708984375,0.5126953125,0.1708984375,2.734375l0,1.11083984375z M219.59448242188,108.740234375l1.1962890625-0.8544921875q-1.1962890625,0.68359375-1.1962890625,0.8544921875q5.04150390625-3.33251953125,8.7158203125-6.3232421875q-9.65576171875,5.38330078125-11.53564453125,6.494140625q0.5126953125-0.1708984375,1.45263671875-0.1708984375l1.3671875,0z M214.89477539062,110.53466796875l0-0.1708984375l0,0.1708984375q0.42724609375-0.8544921875,0.5126953125-0.93994140625q-15.63720703125,8.63037109375-22.900390625,14.697265625q3.759765625-0.68359375,11.19384765625-5.21240234375q1.45263671875-0.76904296875,3.9306640625-2.349853515625t3.2470703125-2.008056640625q1.11083984375-0.68359375,3.84521484375-2.64892578125l0-0.8544921875q0-0.5126953125,0.1708984375-0.68359375z M189.68725585938,128.3935546875l0.5126953125-0.42724609375q-0.5126953125,0.25634765625-0.5126953125,0.42724609375q0.76904296875-0.42724609375,2.349853515625-1.409912109375t2.349853515625-1.409912109375q-1.5380859375,0.5126953125-3.33251953125,0.5126953125l-0.68359375,0q-0.68359375,0.68359375-0.68359375,1.025390625l0,0.68359375l0,0.59814453125z M190.37084960938,121.8994140625q1.79443359375-1.79443359375,3.759765625-3.460693359375t4.52880859375-3.546142578125t3.9306640625-2.862548828125t4.69970703125-3.289794921875t4.1015625-2.81982421875q-2.30712890625,1.3671875-7.09228515625,4.144287109375t-7.09228515625,4.144287109375q-1.11083984375,0.68359375-3.50341796875,2.008056640625t-3.50341796875,2.008056640625q-0.1708984375,0.08544921875-0.42724609375,0.25634765625t-0.299072265625,0.213623046875t-0.08544921875,0.213623046875t-0.042724609375,0.5126953125l0,0.68359375l0,1.96533203125l0,1.025390625q0.341796875-0.5126953125,1.025390625-1.1962890625z M189.34545898438,116.0888671875l0.341796875-0.341796875l-0.341796875,0.341796875q1.708984375-1.79443359375,3.759765625-3.67431640625t4.9560546875-4.2724609375t4.01611328125-3.41796875q-7.60498046875,5.04150390625-12.21923828125,7.177734375q-0.1708984375,0.08544921875-0.726318359375,0.299072265625t-0.982666015625,0.42724609375t-0.42724609375,0.469970703125q0.93994140625,1.8798828125,0.93994140625,3.67431640625z M206.43530273438,99.853515625q0,0.1708984375,0.25634765625-0.08544921875q0.1708984375-0.1708984375,0.1708984375-0.25634765625q-0.08544921875,0.1708984375-0.42724609375,0.341796875q-0.341796875,0.341796875-1.3671875,1.025390625q1.28173828125-0.68359375,4.69970703125-2.99072265625q-0.59814453125,0-1.153564453125,0.299072265625t-1.239013671875,0.897216796875t-0.93994140625,0.76904296875z M214.89477539062,115.4052734375l-2.81982421875,1.5380859375q2.81982421875-1.3671875,2.81982421875-1.5380859375q-11.36474609375,6.57958984375-14.35546875,8.3740234375q-1.45263671875,0.8544921875-4.229736328125,2.5634765625t-4.144287109375,2.5634765625q-0.1708984375,0.08544921875-0.68359375,0.384521484375t-0.811767578125,0.469970703125t-0.555419921875,0.469970703125t-0.25634765625,0.555419921875l0,0.1708984375q0.1708984375,0.1708984375,0.1708984375,0.93994140625l0,1.025390625q11.4501953125-9.14306640625,17.85888671875-12.4755859375q0.341796875-0.1708984375,2.734375-0.982666015625t3.41796875-1.666259765625t0.8544921875-2.392578125z M190.19995117188,137.109375q2.30712890625-1.708984375,7.220458984375-4.9560546875t7.305908203125-4.87060546875q0.5126953125-0.341796875,2.05078125-1.324462890625t2.47802734375-1.62353515625t2.05078125-1.666259765625t1.62353515625-2.05078125q-0.25634765625-0.08544921875-1.11083984375,0.5126953125t-1.708984375,1.28173828125t-1.837158203125,1.45263671875t-1.068115234375,0.8544921875q-1.45263671875,0.8544921875-4.315185546875,2.606201171875t-4.315185546875,2.606201171875q-6.40869140625,3.759765625-6.8359375,4.01611328125q-1.5380859375,0.93994140625-1.5380859375,1.96533203125l0,1.1962890625z M189.17456054688,143.7744140625l2.5634765625-1.96533203125q-2.5634765625,1.79443359375-2.5634765625,1.96533203125q3.2470703125-2.30712890625,9.698486328125-6.92138671875t9.698486328125-6.92138671875q-14.09912109375,8.3740234375-15.380859375,9.0576171875q-0.1708984375,0.08544921875-0.982666015625,0.42724609375t-1.1962890625,0.5126953125t-0.93994140625,0.555419921875t-0.811767578125,0.897216796875t-0.25634765625,1.11083984375q0,0.93994140625,0.1708984375,1.28173828125z M238.13696289062,98.74267578125l-0.1708984375,0l0.1708984375,0q-0.76904296875-0.5126953125-1.025390625-0.5126953125l-1.025390625,0.76904296875q-0.5126953125,0.42724609375-1.580810546875,1.1962890625t-1.580810546875,1.1962890625q-1.708984375,1.1962890625-5.04150390625,3.50341796875t-4.9560546875,3.50341796875q1.96533203125-0.5126953125,4.229736328125-1.751708984375t3.717041015625-2.30712890625t3.887939453125-2.99072265625t3.375244140625-2.606201171875z M231.81372070312,98.22998046875q-0.5126953125,0-1.5380859375,0.25634765625t-1.5380859375,0.25634765625l-0.76904296875,0l-0.76904296875-0.5126953125l-0.08544921875,0q-0.68359375,0.341796875-1.025390625,0.341796875q-0.5126953125,0-0.8544921875-0.1708984375q-3.2470703125,2.392578125-12.4755859375,8.63037109375q-13.92822265625,9.912109375-18.71337890625,14.013671875q8.11767578125-5.9814453125,17.17529296875-11.151123046875t21.7041015625-11.663818359375q-0.1708984375-0.1708984375-0.5126953125-0.1708984375q-0.42724609375,0-0.59814453125,0.1708984375z M215.40747070312,97.88818359375l-1.1962890625,0q-0.93994140625,0-1.28173828125,0.1708984375q-1.28173828125,1.025390625-2.5634765625,2.30712890625q-0.93994140625,0.68359375-1.96533203125,1.495361328125t-2.178955078125,1.751708984375t-1.837158203125,1.45263671875q-8.7158203125,7.43408203125-10.51025390625,9.14306640625q4.78515625-2.734375,14.056396484375-8.203125t13.629150390625-7.94677734375l-1.45263671875,0l-2.2216796875,0q-1.62353515625,0-2.47802734375-0.1708984375z M181.99682617188,98.40087890625q-0.42724609375,0.08544921875-1.153564453125-0.042724609375t-0.811767578125-0.128173828125q-0.59814453125,0-0.8544921875,0.5126953125q-0.42724609375,0.5126953125-1.239013671875,1.580810546875t-1.239013671875,1.580810546875q-0.68359375,1.025390625-2.093505859375,3.076171875t-2.093505859375,3.076171875q8.7158203125-6.06689453125,13.671875-9.0576171875q-0.42724609375-0.08544921875-1.3671875-0.128173828125t-1.62353515625-0.128173828125t-1.1962890625-0.341796875z M190.02905273438,148.47412109375l0.1708984375,0l-0.1708984375,0q0.08544921875,0.08544921875,5.340576171875-3.84521484375t6.365966796875-4.87060546875l12.04833984375-9.48486328125q-3.2470703125,2.05078125-9.0576171875,6.280517578125t-8.3740234375,5.938720703125q-3.5888671875,2.392578125-5.2978515625,2.99072265625q-0.08544921875,0.08544921875-0.42724609375,0.213623046875t-0.640869140625,0.25634765625t-0.299072265625,0.213623046875q0.341796875,0.68359375,0.341796875,1.96533203125l0,0.341796875z M214.38208007812,137.2802734375q0-0.08544921875-0.726318359375,0.341796875t-1.409912109375,0.8544921875l-0.68359375,0.5126953125l2.81982421875-1.708984375q0-0.341796875,0.1708984375-0.5126953125q-8.88671875,4.9560546875-14.013671875,8.203125q-1.8798828125,1.025390625-7.6904296875,4.69970703125q-0.25634765625,0.1708984375-0.93994140625,0.640869140625t-0.93994140625,0.68359375t-0.5126953125,0.68359375t-0.25634765625,0.982666015625l0,0.341796875q11.962890625-7.3486328125,24.18212890625-15.72265625z M216.26196289062,147.79052734375l-1.3671875,0.8544921875l1.3671875-0.8544921875q-3.50341796875,2.30712890625-10.211181640625,7.135009765625t-10.211181640625,7.049560546875q-2.99072265625,1.8798828125-4.6142578125,2.2216796875q-1.5380859375,0.25634765625-1.5380859375-0.8544921875q0-1.025390625,1.1962890625-2.2216796875q-1.5380859375,1.11083984375-1.5380859375,1.8798828125q0,0.1708984375,0.08544921875,0.8544921875t0.08544921875,1.28173828125q0.341796875,0.68359375,0.341796875,2.2216796875l0,1.45263671875q3.5888671875-3.67431640625,8.160400390625-7.09228515625t10.980224609375-7.647705078125t9.0576171875-6.109619140625q-1.28173828125,0-1.79443359375-0.1708984375z M189.85815429688,158.642578125l1.025390625-0.8544921875q-1.025390625,0.68359375-1.025390625,0.8544921875q4.443359375-3.41796875,9.228515625-6.6650390625q-1.708984375,0.93994140625-5.72509765625,3.33251953125q-0.25634765625,0.1708984375-1.153564453125,0.555419921875t-1.239013671875,0.640869140625t-0.726318359375,0.811767578125t-0.384521484375,1.324462890625z M205.06811523438,153.3447265625l-3.67431640625,2.13623046875q0,0.08544921875,0.93994140625-0.469970703125l1.8798828125-1.11083984375t0.8544921875-0.555419921875q-9.7412109375,5.89599609375-12.90283203125,8.80126953125q2.47802734375-1.3671875,6.878662109375-4.6142578125t6.024169921875-4.18701171875z M204.38452148438,151.806640625q1.708984375-0.8544921875,4.52880859375-2.5634765625t3.67431640625-2.13623046875q-4.2724609375,2.2216796875-8.203125,4.69970703125z M189.68725585938,178.21044921875q2.30712890625-1.3671875,2.64892578125-1.5380859375q4.6142578125-3.33251953125,6.23779296875-4.35791015625q6.3232421875-4.443359375,14.013671875-9.65576171875q0.341796875-0.25634765625,1.28173828125-0.897216796875t1.3671875-1.068115234375q0.1708984375-0.59814453125,0.68359375-0.93994140625t1.324462890625-0.59814453125t1.153564453125-0.5126953125t0.59814453125-0.5126953125t0.5126953125-0.59814453125t0.42724609375-0.5126953125q2.30712890625-2.30712890625,7.818603515625-5.46875t6.878662109375-4.1015625q-0.5126953125-0.08544921875-2.2216796875,1.025390625q-0.93994140625,0.5126953125-2.862548828125,1.666259765625t-2.947998046875,1.666259765625q-2.9052734375,1.62353515625-8.587646484375,4.9560546875t-8.587646484375,5.04150390625q-12.21923828125,7.0068359375-15.380859375,8.88671875q-0.59814453125,0.341796875-1.837158203125,1.068115234375t-1.837158203125,1.068115234375q-0.68359375,0.25634765625-0.68359375,2.2216796875l0,2.47802734375l0,0.68359375z M245.48559570312,128.90625l-0.341796875,0.1708984375l0.341796875-0.1708984375q-0.25634765625,0.1708984375-1.11083984375,0.59814453125t-1.3671875,0.897216796875t-0.68359375,1.068115234375l0,0.76904296875q0,1.1962890625-0.1708984375,1.708984375q0,2.64892578125-0.5126953125,4.69970703125q8.3740234375-6.15234375,11.19384765625-8.544921875q-0.25634765625,0.1708984375-1.153564453125,0.8544921875t-1.324462890625,0.982666015625t-1.28173828125,0.8544921875t-1.409912109375,0.8544921875t-1.3671875,0.640869140625t-1.495361328125,0.5126953125l-0.341796875,0q-1.62353515625,0-1.62353515625-1.025390625q0-0.08544921875,0.42724609375-0.5126953125q2.81982421875-2.81982421875,4.01611328125-4.18701171875q-0.25634765625,0-0.726318359375-0.08544921875t-0.726318359375-0.08544921875l-0.341796875,0z M214.89477539062,163.34228515625q0-0.1708984375-0.1708984375-0.1708984375t-0.8544921875,0.5126953125t-0.76904296875,0.5126953125q-1.96533203125,1.45263671875-2.2216796875,1.62353515625q0.341796875-0.1708984375,1.153564453125-0.469970703125t1.239013671875-0.5126953125t0.93994140625-0.59814453125t0.68359375-0.897216796875z M254.11596679688,136.083984375q-1.11083984375,0.76904296875-3.375244140625,2.349853515625t-3.460693359375,2.349853515625q0.8544921875-0.42724609375,2.5634765625-1.1962890625t2.47802734375-1.11083984375q1.708984375-0.76904296875,1.8798828125-1.11083984375q0.08544921875-0.1708984375,0.08544921875-0.42724609375q0-0.08544921875-0.08544921875-0.384521484375t-0.08544921875-0.469970703125z M253.68872070312,131.640625l-0.1708984375,0q-0.1708984375,0.25634765625-0.341796875,0.42724609375q0.5126953125,0,0.5126953125-0.42724609375z M213.78393554688,173.33984375l0.25634765625,0l0-0.1708984375q-0.08544921875,0-0.25634765625,0.1708984375q0.1708984375,0.5126953125-0.213623046875,1.153564453125t-1.1962890625,1.1962890625t-1.580810546875,1.025390625t-1.62353515625,0.8544921875t-0.93994140625,0.469970703125q-1.96533203125,1.1962890625-6.024169921875,3.546142578125t-6.024169921875,3.631591796875q-0.5126953125,0.341796875-5.46875,3.33251953125q-1.025390625,0.42724609375-1.025390625,1.025390625t0.1708984375,1.11083984375q2.81982421875-1.8798828125,8.28857421875-5.255126953125t7.09228515625-4.400634765625q1.45263671875-0.76904296875,4.01611328125-2.47802734375l3.33251953125-2.2216796875q0.1708984375-0.08544921875,0.555419921875-0.42724609375t0.555419921875-0.469970703125t0.555419921875-0.5126953125t0.42724609375-0.59814453125t0.213623046875-0.68359375t0-0.811767578125q-0.1708984375,0.08544921875-0.555419921875,0.25634765625t-0.555419921875,0.25634765625z M170.80297851562,208.88671875l0.5126953125-0.5126953125q-0.08544921875,0-0.299072265625,0.1708984375t-0.213623046875,0.341796875q2.734375-2.392578125,8.88671875-7.51953125q-1.1962890625,0-5.38330078125,3.50341796875q-0.1708984375,0.08544921875-0.76904296875,0.469970703125t-0.982666015625,0.640869140625t-0.897216796875,0.68359375t-0.76904296875,0.8544921875t-0.25634765625,0.8544921875q0,0.08544921875,0.08544921875,0.25634765625t0.08544921875,0.25634765625z M189.17456054688,184.70458984375l1.1962890625-1.025390625q-1.025390625,0.8544921875-1.1962890625,1.025390625q11.279296875-9.31396484375,20.59326171875-16.2353515625q-6.494140625,3.50341796875-11.87744140625,6.92138671875q-1.28173828125,0.76904296875-3.759765625,2.392578125t-3.759765625,2.392578125q-0.68359375,0.42724609375-0.897216796875,1.153564453125t-0.213623046875,1.79443359375t-0.08544921875,1.580810546875z M175.33178710938,201.3671875q-0.42724609375,0-1.28173828125,0.08544921875t-1.1962890625,0.08544921875l-0.68359375,0q-0.341796875,0.341796875-0.555419921875,0.640869140625t-0.341796875,0.726318359375t-0.1708984375,0.59814453125t-0.08544921875,0.811767578125t-0.042724609375,0.897216796875q0.76904296875-0.59814453125,5.38330078125-3.84521484375q-0.1708984375-0.1708984375-0.5126953125-0.1708984375t-0.5126953125,0.1708984375z M176.18627929688,211.7919921875q0.5126953125-0.1708984375,1.45263671875-0.1708984375q0.68359375,0,1.025390625,0.1708984375q0.25634765625-0.25634765625,0.93994140625-0.384521484375t0.93994140625-0.469970703125l1.79443359375-1.1962890625q0.341796875-0.25634765625,11.36474609375-7.3486328125q1.96533203125-1.28173828125,5.89599609375-3.887939453125t5.9814453125-3.802490234375q4.6142578125-3.076171875,6.494140625-5.6396484375q-6.57958984375,3.759765625-19.696044921875,11.36474609375t-19.696044921875,11.36474609375q0.08544921875,0,0.341796875,0.128173828125t0.341796875,0.128173828125q0.341796875,0,1.068115234375-0.213623046875t1.068115234375-0.213623046875q0.5126953125,0,0.68359375,0.1708984375z M215.92016601562,195.0439453125l-0.1708984375,0.1708984375q0.1708984375,0,0.1708984375-0.1708984375q-0.8544921875,0.5126953125-2.093505859375,2.349853515625t-1.751708984375,2.349853515625q-2.2216796875,2.734375-9.65576171875,10.16845703125q1.79443359375-1.11083984375,4.827880859375-3.375244140625t4.315185546875-3.118896484375q4.18701171875-3.41796875,6.3232421875-3.84521484375q-1.1962890625-1.025390625-1.96533203125-4.52880859375z M215.40747070312,193.07861328125l-2.64892578125,1.62353515625l2.64892578125-1.62353515625q-8.97216796875,5.21240234375-17.68798828125,10.51025390625q0.25634765625-0.1708984375,5.04150390625-2.777099609375t8.80126953125-4.998779296875t3.84521484375-2.734375z M202.59008789062,198.71826171875l2.30712890625-1.45263671875q-1.45263671875,0.93994140625-2.30712890625,1.45263671875q5.21240234375-3.16162109375,10.51025390625-6.15234375q-3.33251953125,1.1962890625-10.51025390625,6.15234375z M190.19995117188,210.0830078125l0.1708984375-0.1708984375l-0.5126953125,0.341796875q0.1708984375,0,0.341796875-0.1708984375q0.93994140625-0.42724609375,2.13623046875-1.3671875q-2.05078125,1.28173828125-4.2724609375,2.392578125q0.341796875-0.1708984375,1.068115234375-0.5126953125t1.068115234375-0.5126953125z M197.71948242188,211.279296875l0.1708984375,0l-0.341796875,0l0.1708984375,0q0.1708984375,0,0.469970703125,0.08544921875t0.384521484375,0.08544921875q0.1708984375,0,0.341796875-0.341796875q0.1708984375-0.25634765625,0.726318359375-0.726318359375t0.726318359375-0.640869140625q0.42724609375-0.42724609375,1.11083984375-1.153564453125t1.28173828125-1.324462890625t1.11083984375-1.025390625q7.26318359375-7.77587890625,7.3486328125-7.861328125q-12.98828125,9.0576171875-19.82421875,12.90283203125q0.341796875,0.1708984375,0.93994140625,0.1708984375q0.25634765625,0,0.76904296875-0.1708984375t0.76904296875-0.1708984375q0.5126953125,0,0.68359375,0.1708984375q0.5126953125,0.1708984375,1.28173828125,0.1708984375q0.1708984375,0,0.76904296875-0.08544921875t1.11083984375-0.08544921875z M211.04956054688,210.7666015625q0.5126953125,0.08544921875,0.93994140625-0.213623046875t0.640869140625-0.555419921875t0.5126953125-0.93994140625t0.469970703125-0.93994140625q0.68359375-1.11083984375,2.2216796875-3.375244140625t2.2216796875-3.375244140625q-3.33251953125,1.1962890625-8.673095703125,5.46875t-6.964111328125,5.21240234375q0.68359375,0.341796875,0.93994140625,0.341796875q0.341796875,0,1.11083984375-0.299072265625t1.11083984375-0.299072265625q0.08544921875,0,0.25634765625,0.128173828125t0.25634765625,0.128173828125q0.68359375-0.08544921875,2.178955078125-0.726318359375t2.777099609375-0.555419921875z M216.60375976562,210.9375l0.5126953125-0.341796875l-0.5126953125,0.341796875q2.05078125-1.45263671875,3.67431640625-2.392578125q-0.68359375,0.341796875-2.093505859375,1.11083984375t-2.093505859375,1.11083984375q0.08544921875,0,0.25634765625,0.08544921875t0.25634765625,0.08544921875z M225.40502929688,210.9375q0.1708984375-0.1708984375,2.2216796875-0.1708984375l0.341796875,0q1.28173828125-1.708984375,1.45263671875-1.8798828125q0.59814453125-0.8544921875,1.751708984375-2.5634765625t1.751708984375-2.5634765625q-6.75048828125,4.35791015625-11.53564453125,7.0068359375q0.1708984375,0,0.384521484375,0.08544921875t0.299072265625,0.08544921875t0.1708984375-0.042724609375t0.299072265625-0.128173828125t0.384521484375-0.1708984375q0.08544921875,0,0.25634765625-0.08544921875t0.25634765625-0.08544921875q0.42724609375,0,1.96533203125,0.5126953125z M233.26635742188,201.5380859375q-0.42724609375,0-3.16162109375,2.05078125q2.81982421875-1.62353515625,3.67431640625-2.2216796875q-0.341796875,0-0.5126953125,0.1708984375z M232.75366210938,211.7919921875l0.68359375-0.68359375q-1.025390625,0.341796875-1.025390625,0.68359375l0.341796875,0z M236.76977539062,202.2216796875l0-0.1708984375l0,0.1708984375l0.341796875-0.68359375q0-0.1708984375-0.341796875-0.1708984375q-1.1962890625,2.05078125-3.887939453125,5.6396484375t-3.118896484375,4.2724609375q0.25634765625,0.1708984375,1.62353515625-0.640869140625t3.2470703125-2.008056640625l1.79443359375-1.1962890625q0-0.25634765625-0.08544921875-0.811767578125t-0.08544921875-0.897216796875q0-2.47802734375,0.5126953125-3.50341796875z M219.93627929688,200.25634765625l0.1708984375,0l-0.1708984375,0q0,0.341796875-0.25634765625,1.153564453125t-0.42724609375,0.811767578125q-0.68359375,1.3671875-4.52880859375,7.51953125q2.392578125-1.45263671875,7.135009765625-4.144287109375t7.049560546875-4.058837890625q-0.5126953125-0.1708984375-2.008056640625-0.341796875t-2.264404296875-0.42724609375l-0.341796875,0q-1.3671875,0-2.05078125-0.68359375q-0.68359375,0.341796875-1.45263671875,0.341796875q-0.1708984375,0-0.469970703125-0.08544921875t-0.384521484375-0.08544921875z M214.55297851562,180.6884765625q0-0.1708984375-0.1708984375-0.341796875q-6.57958984375,3.84521484375-7.94677734375,4.52880859375q-1.96533203125,1.11083984375-6.15234375,4.400634765625t-6.75048828125,4.571533203125q-0.5126953125,0.341796875-1.580810546875,0.640869140625t-1.239013671875,0.384521484375q-0.1708984375,0-1.153564453125,0.1708984375t-1.324462890625,0.341796875q-0.08544921875,0.08544921875-0.213623046875,1.11083984375t-0.299072265625,1.1962890625q0,0.68359375-0.811767578125,1.3671875t-1.409912109375,0.8544921875q-0.1708984375,0.1708984375-0.68359375,0.1708984375l-0.59814453125,0l-0.341796875,0q-0.1708984375,0.1708984375-0.341796875,0.59814453125t-0.341796875,0.68359375q-0.341796875,0.341796875-1.025390625,0.341796875l-0.341796875,0q-0.42724609375,0.341796875-1.324462890625,1.025390625t-1.324462890625,1.025390625q-7.861328125,6.8359375-8.0322265625,7.0068359375q3.84521484375-2.13623046875,11.53564453125-6.622314453125t11.53564453125-6.622314453125q2.30712890625-1.45263671875,14.5263671875-8.45947265625q3.41796875-1.96533203125,3.84521484375-2.2216796875q0.08544921875,0,0.25634765625-0.08544921875t0.25634765625-0.08544921875q0.1708984375-0.1708984375,0.5126953125-0.1708984375t0.640869140625,0.555419921875t0.299072265625,0.982666015625q-0.1708984375,1.1962890625-1.79443359375,2.81982421875q1.3671875-0.341796875,2.13623046875-0.341796875l0-1.79443359375l0-0.68359375q0-1.45263671875,0.1708984375-1.96533203125q0-0.8544921875-0.25634765625-2.606201171875t-0.25634765625-2.777099609375z M195.83959960938,182.7392578125l3.50341796875-2.2216796875l-3.9306640625,2.47802734375q0.25634765625-0.08544921875,0.42724609375-0.25634765625q5.2978515625-3.50341796875,14.5263671875-9.228515625q2.99072265625-1.8798828125,4.35791015625-2.47802734375q0-0.68359375-0.08544921875-2.093505859375t-0.08544921875-2.093505859375q-8.63037109375,6.494140625-14.35546875,11.19384765625q-0.1708984375,0.08544921875-1.495361328125,1.068115234375t-2.81982421875,2.13623046875t-3.076171875,2.392578125t-2.5634765625,2.178955078125t-0.897216796875,1.1962890625q1.1962890625-0.68359375,3.546142578125-2.264404296875t2.947998046875-2.008056640625z M235.48803710938,159.4970703125q0.5126953125,0.08544921875,1.45263671875,0.555419921875t1.3671875,0.469970703125q0.5126953125,0,0.8544921875-0.341796875q0.76904296875-0.68359375,2.47802734375-2.093505859375t2.47802734375-2.093505859375q1.5380859375-1.3671875,4.69970703125-4.01611328125t4.69970703125-4.01611328125q-0.42724609375,0.25634765625-4.52880859375,2.9052734375t-6.15234375,4.1015625q-0.5126953125,0.25634765625-2.2216796875,1.45263671875t-3.2470703125,2.178955078125t-1.8798828125,0.897216796875z M253.85961914062,164.6240234375l0,0.1708984375l0-0.1708984375q-3.50341796875,3.33251953125-4.35791015625,4.01611328125q-3.16162109375,3.16162109375-4.52880859375,4.69970703125q1.3671875-0.5126953125,3.631591796875-1.96533203125t2.691650390625-1.708984375q0.25634765625-0.1708984375,0.76904296875-0.555419921875t0.811767578125-0.640869140625t0.59814453125-0.640869140625t0.384521484375-0.811767578125l0-1.5380859375l0-0.8544921875z M254.62866210938,155.65185546875q0,0.25634765625-0.8544921875,1.068115234375t-2.008056640625,1.79443359375t-1.324462890625,1.153564453125q-2.47802734375,2.47802734375-3.67431640625,3.84521484375q-2.30712890625,2.734375-2.64892578125,3.67431640625q1.1962890625-0.5126953125,2.691650390625-1.324462890625t2.30712890625-1.324462890625t2.691650390625-1.837158203125t2.30712890625-1.580810546875q0.25634765625-0.93994140625,0.299072265625-2.81982421875t0.213623046875-2.64892578125z M244.28930664062,163.85498046875l0.341796875-0.341796875l-0.8544921875,1.11083984375l0.5126953125-0.76904296875q1.8798828125-2.392578125,5.04150390625-5.55419921875q-4.87060546875,3.2470703125-7.177734375,4.35791015625q-1.1962890625,0.59814453125-1.1962890625,1.025390625l0,1.11083984375q0.341796875,1.025390625,0.341796875,1.5380859375q0.68359375,1.79443359375,0.68359375,4.69970703125q0.5126953125,3.076171875,0.5126953125,3.84521484375q0,1.11083984375-0.1708984375,1.45263671875q0.25634765625-0.1708984375,0.726318359375-0.555419921875t0.726318359375-0.555419921875q-1.28173828125,0-1.28173828125-0.8544921875q0-0.76904296875,1.11083984375-1.8798828125q2.99072265625-3.41796875,6.40869140625-6.6650390625q-0.341796875,0.1708984375-1.79443359375,1.1962890625t-2.5634765625,1.580810546875t-2.05078125,0.555419921875q-1.28173828125,0-1.28173828125-1.28173828125q0-1.025390625,1.96533203125-4.01611328125z M243.60571289062,179.4921875l1.1962890625-0.76904296875q-1.1962890625,0.59814453125-1.1962890625,0.76904296875q2.30712890625-1.3671875,6.57958984375-4.1015625q0.25634765625-0.1708984375,1.1962890625-0.59814453125t1.409912109375-0.726318359375t0.897216796875-0.8544921875t0.42724609375-1.239013671875q-6.6650390625,4.18701171875-10.85205078125,7.3486328125q0.341796875,0,0.341796875,0.1708984375z M254.97045898438,149.15771484375l-0.1708984375,0l0.1708984375,0q0,0.341796875-7.51953125,6.3232421875q-1.1962890625,1.025390625-3.631591796875,3.16162109375t-3.717041015625,3.16162109375q0.341796875,0.341796875,3.67431640625-1.79443359375t4.69970703125-3.16162109375q0.341796875-0.1708984375,5.810546875-4.01611328125q0.68359375-0.42724609375,0.68359375-1.3671875q0-0.25634765625-0.08544921875-0.68359375t-0.08544921875-0.68359375q0-0.59814453125,0.1708984375-0.93994140625z M252.66333007812,127.96630859375q-0.25634765625,0.08544921875-1.068115234375,0.25634765625t-1.3671875,0.42724609375t-0.897216796875,0.59814453125q-0.8544921875,1.025390625-2.81982421875,2.99072265625q0.42724609375-0.1708984375,1.922607421875-1.324462890625t2.777099609375-2.093505859375t1.45263671875-0.8544921875z M227.62670898438,147.27783203125l0.1708984375,0.1708984375l0.1708984375,0q0-0.1708984375-0.341796875-0.1708984375q-0.341796875,0.1708984375-0.8544921875,0.1708984375q-1.025390625,0-1.5380859375,0.1708984375q-0.1708984375,0-0.469970703125,0.08544921875t-0.469970703125,0.08544921875t-0.8544921875-0.341796875q-0.08544921875,0-1.025390625,0.08544921875t-1.025390625,0.08544921875q-0.341796875,0.25634765625-1.068115234375,0.76904296875t-1.068115234375,0.76904296875q-1.8798828125,1.3671875-5.55419921875,3.887939453125t-5.46875,3.802490234375q-1.025390625,0.68359375-4.400634765625,2.99072265625t-5.04150390625,3.50341796875t-4.1015625,3.289794921875t-4.144287109375,4.058837890625q6.75048828125-3.84521484375,20.123291015625-11.62109375t20.123291015625-11.62109375q-0.341796875-0.08544921875-0.640869140625-0.299072265625t-0.555419921875-0.213623046875q-0.1708984375,0-0.5126953125,0.1708984375q-0.341796875,0.341796875-0.76904296875,0.341796875q-0.1708984375,0-0.384521484375-0.08544921875t-0.299072265625-0.08544921875z M214.38208007812,143.7744140625q0-0.08544921875-2.178955078125,1.28173828125t-2.777099609375,1.8798828125q0.25634765625-0.1708984375,1.708984375-0.76904296875t2.349853515625-1.1962890625t0.897216796875-1.1962890625z M207.54614257812,145.1416015625l2.05078125-1.025390625t3.33251953125-1.79443359375t1.45263671875-1.1962890625q-1.1962890625,0.68359375-3.460693359375,2.008056640625t-3.375244140625,2.008056640625z M202.07739257812,141.97998046875l2.47802734375-1.3671875l-2.47802734375,1.3671875q7.77587890625-4.6142578125,9.99755859375-5.72509765625l0.8544921875-0.42724609375t1.1962890625-0.640869140625t0.59814453125-0.555419921875q0-0.5126953125,0.08544921875-1.495361328125t0.08544921875-1.495361328125q-5.6396484375,4.52880859375-15.2099609375,11.7919921875l0.76904296875-0.384521484375t0.897216796875-0.555419921875t0.726318359375-0.5126953125z M235.14624023438,108.740234375q2.734375,0.68359375,3.16162109375,0.68359375q0.341796875,0,0.68359375-0.341796875q0.5126953125-0.59814453125,1.580810546875-1.751708984375t1.580810546875-1.751708984375q1.025390625-1.11083984375,3.033447265625-3.41796875t3.118896484375-3.41796875q-0.08544921875,0-0.341796875-0.08544921875t-0.341796875-0.08544921875q-0.8544921875,0-1.922607421875,0.5126953125t-2.264404296875,1.3671875t-1.62353515625,1.11083984375q-6.40869140625,3.84521484375-10.33935546875,6.8359375q0.59814453125,0.08544921875,1.79443359375,0.1708984375t1.8798828125,0.1708984375z M252.66333007812,109.423828125l0.1708984375,0l-0.341796875,0l0.1708984375,0q2.05078125,0.341796875,2.47802734375,0.341796875q0.76904296875,0,2.2216796875-2.9052734375l4.78515625-7.177734375q-2.81982421875,1.5380859375-8.502197265625,4.742431640625t-8.502197265625,4.827880859375q0.341796875,0,1.1962890625-0.08544921875t1.28173828125-0.08544921875q1.025390625,0,1.3671875,0.341796875q0.341796875,0,0.8544921875,0.08544921875t0.76904296875,0.08544921875l0.341796875,0q0.1708984375-0.1708984375,1.708984375-0.1708984375z M262.83178710938,113.26904296875q0.341796875,0.08544921875,0.59814453125,0.341796875t0.42724609375,0.25634765625q0.08544921875,0,0.68359375-0.59814453125q2.13623046875-1.708984375,2.30712890625-1.8798828125q5.6396484375-4.9560546875,5.810546875-5.04150390625q-6.57958984375,3.2470703125-12.3046875,5.55419921875q1.8798828125,0.76904296875,2.47802734375,1.3671875z M266.33520507812,116.943359375q0.08544921875,0.1708984375,0.726318359375,0.8544921875t0.811767578125,1.11083984375q1.45263671875-1.28173828125,4.144287109375-3.887939453125t4.144287109375-3.973388671875q0.93994140625-1.025390625,2.734375-2.862548828125t2.81982421875-2.777099609375q0.08544921875-0.08544921875,0.68359375-0.5126953125t1.025390625-0.8544921875t0.42724609375-0.68359375q-1.3671875,0.68359375-2.862548828125,1.708984375t-2.520751953125,1.751708984375t-2.777099609375,2.093505859375t-2.520751953125,1.96533203125q-0.5126953125,0.42724609375-1.708984375,1.324462890625t-1.922607421875,1.45263671875t-1.8798828125,1.239013671875t-2.178955078125,1.025390625q0.68359375,0.68359375,0.8544921875,1.025390625z M270.18041992188,124.71923828125q8.63037109375-7.77587890625,9.65576171875-8.63037109375q2.47802734375-2.47802734375,3.50341796875-3.67431640625q0.341796875-0.341796875,0.469970703125-0.59814453125t0.1708984375-0.640869140625t0.213623046875-0.811767578125q-5.21240234375,2.47802734375-13.5009765625,8.7158203125q-1.8798828125,0.93994140625-1.8798828125,1.79443359375q0.08544921875,0.1708984375,0.25634765625,0.59814453125t0.25634765625,0.59814453125q0.5126953125,1.28173828125,0.8544921875,2.64892578125z M271.37670898438,139.41650390625q0.42724609375,0,1.153564453125-0.59814453125t1.5380859375-1.5380859375t1.153564453125-1.1962890625q0.93994140625-0.68359375,3.759765625-2.64892578125t4.35791015625-3.16162109375q-5.9814453125,3.9306640625-8.97216796875,5.6396484375q-0.08544921875,0.08544921875-2.81982421875,1.708984375q-0.341796875,0.1708984375-0.341796875,0.5126953125q0,0.1708984375,0.08544921875,0.59814453125t0.08544921875,0.68359375z"/><path fill="#" d=""/></svg>
